<?xml version="1.0" encoding="UTF-8" standalone="no"?>
<svg
   version="1.1"
   viewBox="0 0 666.51459 171.8851"
   id="svg104"
   width="666.51459"
   height="171.8851"
   xmlns="http://www.w3.org/2000/svg"
   xmlns:svg="http://www.w3.org/2000/svg">
  <defs
     id="defs104" />
  <path
     id="wandler"
     style="display:inline;fill:#fcee0a;fill-opacity:1"
     d="m 417.00016,0.60061498 c -0.2,0.053333 -0.35737,0.2467448 -0.47071,0.58007812 -0.53333,1.5533333 -1.18875,3.0719273 -1.96875,4.5585937 -0.18666,0.3533335 -0.48086,0.5405469 -0.88086,0.5605469 l -1.26953,0.060547 a 2.33,2.32 13.3 0 0 -1.91992,1.1796869 c -0.89333,1.580002 -3.03016,5.5501574 -6.41016,11.9101574 -0.98,1.85 -3.65015,3.769687 -4.66015,5.929687 -1.88,4.06 -3.71969,8.520391 -6.67969,11.650391 -0.16667,0.173333 -0.45466,0.310156 -0.86133,0.410156 -0.24666,0.06 -0.62844,0.0569 -1.14844,-0.0098 a 0.77,1.19 34.1 0 0 -0.85156,0.359374 c -0.32,0.320001 -0.97232,1.313803 -1.95898,2.980469 -6.60667,11.186667 -21.21985,35.493261 -43.83985,72.919928 -1,1.66 -3.15427,4.1817 -6.46093,7.56836 -0.35334,0.36 -0.73201,1.17474 -1.13868,2.44141 l 4.69922,5.40039 a 2.99,2.99 0 0 0 3.19922,0.86914 l 54.65039,-18.35938 c 0.98,-0.33333 1.2711,-0.0205 0.8711,0.93946 l -0.36133,0.85937 c -0.12,0.28 -0.15914,0.568 -0.11914,0.86133 0.26,2.22667 0.0306,4.5662 -0.68946,7.01953 -0.22666,0.76667 0.13032,1.65969 1.07032,2.67969 a 1.15,0.09 68.1 0 1 0.39844,0.81055 c 0.0666,0.14666 0.0574,0.34937 -0.0293,0.60937 a 0.34,0.35 2.4 0 0 0.41015,0.44922 c 22.10667,-5.7933 43.9431,-10.99291 65.50977,-15.59958 2.07,-0.44 3.06977,-1.44961 3.50977,-3.59961 0.44,-2.15333 0.85356,-4.30565 1.24023,-6.45898 -1.90667,-0.0267 -3.76984,0.28922 -5.58984,0.94922 a 1.82,1.85 40 0 1 -0.93946,0.0898 c -1.33,-0.21 -2.28101,-0.39922 -3.79101,-0.19922 -13.16,1.67333 -26.30612,3.36675 -39.43946,5.08008 -1.02666,0.0933 -1.90729,0.0193 -2.64062,-0.2207 a 0.44,0.43 22.1 0 1 -0.25977,-0.59961 c 1.82,-3.82 3.55761,-7.653344 5.21094,-11.500007 0.64,-1.49 4.38906,-6.380156 7.28906,-6.660156 10.51334,-1.013334 20.73969,-1.94125 30.67969,-2.78125 a 1.71,1.74 13.3 0 0 1.34961,-0.84961 c 1.24667,-2.12 2.02341,-4.453333 2.33008,-7 -2.61,0.07 -4.74961,0.270938 -7.59961,-0.03906 -3,-0.32 -6.59898,0.379765 -8.70899,0.509765 -3.70666,0.24 -7.45976,0.480703 -11.25976,0.720704 l -2.4707,-0.28125 a 0.59,0.59 0 0 1 -0.43946,-0.878907 l 5.63868,-9.78125 a 2.29,2.24 11.1 0 1 1.6914,-1.109375 c 8.02667,-0.993335 15.09565,-1.630158 21.20899,-1.910158 7.7,-0.353333 14.21744,-0.835885 19.55078,-1.449219 2.46,-0.28 2.47992,-4.211015 2.66992,-6.541015 0.0667,-0.86 0.57596,-1.425886 1.5293,-1.699219 0.27333,-0.233333 0.4307,-0.474037 0.4707,-0.720703 0.0733,-0.466667 -0.13133,-0.689922 -0.61133,-0.669922 l -57.13867,2.589844 a 1,1 0 0 0 -0.81055,0.5 c -6.18,11.21 -11.66898,21.979453 -17.70898,31.939453 -1.11334,1.833333 -2.13388,3.901172 -3.06055,6.201172 -0.88,2.18 -2.13078,3.979379 -4.80078,4.609379 -10.41333,2.480004 -21.06255,5.143564 -31.94922,7.990234 -0.65333,0.62 -1.75104,0.8731 -3.29101,0.75977 a 0.33,0.33 0 0 1 -0.26954,-0.48047 c 11.17334,-20.833346 23.31326,-42.949619 36.41993,-66.349616 2.09,-3.740001 4.89093,-9.409532 7.21093,-14.019532 3.43,-6.81 5.45946,-14.269219 7.18946,-21.9492189 0.32,-1.4266667 0.10914,-2.6138802 -0.63086,-3.56054692 -0.32,-0.2533333 -0.60914,-0.3428646 -0.86914,-0.2695312 z M 184.88102,10.993194 c -2.85875,0.147497 -5.65563,1.086406 -8.39063,2.816406 -2.93333,1.86 -4.81396,2.96388 -5.64062,3.310547 -1.66667,0.693333 -4.83334,1.642942 -9.5,2.849609 -1.44667,0.373333 -2.41375,0.822943 -2.90039,1.349609 -8.48668,9.16 -20.12349,21.397605 -34.91016,36.710938 -8.95,9.27 -19.00938,20.490234 -28.85938,30.490234 -1.29333,1.866667 -2.62356,3.492238 -3.99023,4.878907 -0.99333,0.999999 -1.21659,0.850781 -0.66992,-0.449219 1.00666,-2.42 1.88419,-5.654505 2.63086,-9.701172 1.45333,-7.88 2.56651,-14.17224 3.33984,-18.878906 0.42,-2.533334 1.04557,-5.634115 1.87891,-9.300782 0.68666,-3.026666 1.34093,-6.122395 1.96093,-9.289062 -0.28666,-0.293333 -0.77427,-0.489844 -1.46093,-0.589844 a 0.91,0.9 23.7 0 0 -0.81836,0.308594 c -2.08,2.473333 -3.68388,4.184193 -4.81055,5.130859 -12.36667,10.36 -22.7,19.270469 -31,26.730469 -4.25333,3.82 -8.68435,7.676979 -13.29101,11.570313 l -5.3086,4.769531 c -0.41333,0.366666 -0.51101,0.295729 -0.29101,-0.210938 2.54666,-5.853333 4.76062,-11.80914 6.64062,-17.86914 4.81333,-15.486667 9.57883,-30.299456 14.29883,-44.439453 0.48667,-1.466668 1.26341,-3.117839 2.33008,-4.951172 0.89333,-1.546667 1.73481,-3.180391 2.52148,-4.900391 0.57333,-0.453333 0.79969,-1.052161 0.67969,-1.798828 -0.12667,-0.766667 -0.56078,-1.034115 -1.30078,-0.800781 -10.98667,3.5 -20.40334,6.710859 -28.25,9.630859 -0.51334,0.186667 -1.10906,0.526198 -1.78907,1.019531 -0.29999,0.213334 -0.46356,0.502474 -0.49023,0.869141 -0.21333,2.966667 -1.6207,8.353489 -4.2207,16.160156 -8.93334,26.773333 -16.44571,47.614812 -22.53907,62.521491 -1.759991,4.3 -3.717761,7.81859 -5.871091,10.55859 -2.5,3.16667 -3.91356992,5 -4.24022992,5.5 -0.17334,0.26667 -0.17953,0.54031 -0.0195,0.82031 l 4.04100992,6.99024 a 0.91,0.92 78.5 0 0 0.69922,0.45898 L 20.3205,134.8389 66.64081,96.770536 c 0.38,-0.31333 0.50248,-0.229997 0.36914,0.25 l -1.55078,5.478524 -6.08984,33.23047 c 1.08,-1.7 2.15093,-3.01899 3.21093,-3.95899 0.69334,-0.61333 0.96388,-0.46411 0.81055,0.44922 l -0.5,2.94922 c -0.0733,0.42 0.0697,0.75023 0.42969,0.99023 0.92667,0.60667 3.14684,1.56133 6.66015,2.86133 3.37001,1.25 3.52922,-0.67055 5.19922,-2.56055 10.80667,-12.15333 20.52063,-22.97117 29.14063,-32.45117 a 4.02,4.01 18 0 1 2.55859,-1.29883 l 10.58008,-1.08007 c 0.58667,-0.06 0.62466,0.0532 0.11133,0.33984 l -1.86133,1.05078 c -0.3,0.16667 -0.55,0.39302 -0.75,0.67969 -0.52667,0.75333 -1.13984,1.31302 -1.83984,1.67969 -9,9.19333 -17.52985,18.77356 -25.58985,28.74023 -1.66,2.05 -4.15922,4.57047 -5.69922,7.48047 a 0.31,0.31 0 0 0 0.20899,0.44922 l 8.58008,1.68945 c 2.58666,0.19333 5.03005,-0.12875 7.33008,-0.96875 3.14999,-1.15 6.46984,-4.64984 8.58984,-6.83984 7.75333,-8 15.21419,-15.81474 22.38086,-23.44141 3.88,-4.12 7.46062,-7.36 11.39062,-11.5 a 1.36,1.36 0 0 1 0.83985,-0.42969 c 9.62,-1.146664 18.41224,-2.057134 26.3789,-2.730464 1.48,-0.12002 3.21039,0.19054 4.90039,-0.68946 a 0.37,0.37 0 0 1 0.5293,0.40039 l -0.94922,4.429694 -7.34961,33.21094 c 6.28,-3.5 10.86024,-6.80039 13.74024,-9.90039 2.86,-3.08 4.94953,-7.20133 6.26953,-12.36133 1.45333,-5.70667 3.1107,-10.64503 4.9707,-14.818364 a 2.3,2.29 8.5 0 1 1.8086,-1.33008 l 7.03124,-0.830077 c 0.57334,-0.06667 0.68961,0.132945 0.34961,0.599609 l -1.83007,2.519528 -10.67969,20.609384 18.33984,0.0898 a 2.52,2.53 13.8 0 0 2.25977,-1.36914 c 4.5,-8.89333 8.6039,-17.15263 12.31054,-24.779299 0.39334,-0.8 1.12279,-1.841094 2.18946,-3.121094 a 0.55,0.55 0 0 1 0.92969,0.13086 l 12.07031,27.939453 a 1.28,1.28 0 0 0 1.23047,0.76954 l 13.16992,-0.59961 a 1.82,1.81 12.2 0 0 1.5293,-0.98047 c 4.61333,-9.02667 8.60403,-17.06271 11.9707,-24.109382 6.07,-12.71 11.05891,-22.320313 17.37891,-34.820313 0.55333,-1.086666 1.36807,-1.798671 2.4414,-2.138671 0.45333,-0.860001 -0.39125,-1.160391 -2.53125,-0.900391 -1.02,0.126667 -2.36263,0.139062 -4.0293,0.03906 -4,-0.23 -6.98953,0.249456 -12.01953,0.439453 a 1.88,1.89 12.2 0 0 -1.62109,1.050782 l -16.25977,32.859375 c -0.61333,1.233333 -1.17921,1.21164 -1.69922,-0.06836 l -12.63085,-31 a 0.51,0.5 66.7 0 0 -0.66993,-0.271484 c -0.82,0.36 -1.73976,0.508073 -2.75976,0.441406 -4.18667,-0.266666 -8.37078,-0.277916 -12.55078,-0.03125 -0.42,0.02667 -0.55994,0.240625 -0.41992,0.640625 0.12666,0.38 0.31388,0.704037 0.56054,0.970703 a 1.28,1.29 36.4 0 1 0.21094,1.429688 l -11.19141,22.589844 c -0.3,0.606666 -0.78255,0.936901 -1.44922,0.990234 l -10.16992,0.849609 c -0.49333,0.466667 -1.09101,0.59224 -1.79101,0.378907 a 0.7,0.7 0 0 1 -0.42969,-0.958985 c 2.08,-4.573333 3.60365,-9.296588 4.57031,-14.169922 0.23334,-1.186666 0.68914,-2.639375 1.36914,-4.359375 0.21334,-0.54 0.56722,-1.846588 1.06055,-3.919921 0.32,-1.340002 0.91458,-2.60125 1.78125,-3.78125 1.02,-5.106668 2.76495,-10.342318 5.23828,-15.708985 0.5533,-1.206625 0.22814,-1.530661 -0.97855,-0.970661 l -0.77148,0.359375 c -0.96667,0.446667 -1.262,0.173021 -0.88867,-0.820313 l 1.5,-4.019531 c 0.39333,-1.053333 0.0755,-1.348672 -0.95117,-0.888672 -0.54667,0.246667 -1.41295,0.381538 -2.59961,0.408203 A 0.71,0.7 78.6 0 1 199.34977,37.8096 l -0.35938,-0.878906 c -0.11333,-0.273334 -0.32109,-0.40086 -0.62109,-0.38086 -1.7,0.12 -2.81628,0.402943 -3.34961,0.84961 -3.1,2.589998 -6.66899,5.190312 -9.45899,7.570312 -10.68,9.06 -21.36721,18.11349 -32.06054,27.160156 -8.02667,6.78 -15.1193,12.354037 -21.2793,16.720703 -2.36,1.67 -6.46063,1.09 -9.39063,1.25 l -3.92968,0.628907 c -0.59334,0.1 -0.64991,-0.03372 -0.16993,-0.400391 1.08002,-0.82 2.28899,-1.929922 2.95899,-2.669922 16.21333,-17.853333 31.8645,-34.487057 46.95117,-49.900391 2.30667,-2.359999 4.21828,-4.182082 5.73828,-5.46875 a 0.49,0.49 0 0 0 -0.25976,-0.859374 c -2.90667,-0.306667 -5.59503,0.01542 -8.06836,0.96875 -0.76,0.293333 -0.92357,0.09682 -0.49024,-0.589844 0.16,-0.253334 0.50573,-0.616511 1.03907,-1.089844 6.68,-5.853333 13.73349,-12.389375 21.16015,-19.609375 -0.96666,-0.126667 -1.92599,-0.166356 -2.8789,-0.117187 z m 396.08984,36.6875 -79.88086,3.61914 c -0.60667,0.02667 -1.02333,0.320857 -1.25,0.88086 l -21.91016,54.039066 c 0.0267,1.90667 -0.22333,3.58263 -0.75,5.0293 -2.99333,8.17333 -5.35651,14.34815 -7.08984,18.52148 -0.35333,0.84667 -0.79055,1.58542 -1.31055,2.21875 a 1.22,1.22 0 0 0 0.30078,1.81055 l 15.17969,9.55078 5.9707,-15.83008 c 0.0933,-1.82 0.23016,-3.63476 0.41016,-5.4414 0.18667,-1.95334 0.60643,-3.70644 1.25977,-5.25977 2.12,-5.04667 4.20953,-10.10326 6.26953,-15.16992 0.77,-1.870004 1.53031,-4.599854 1.82031,-6.58985 0.06,-0.38 0.26891,-0.496276 0.62891,-0.34961 4.18,1.7 6.9145,2.872866 8.20117,3.519536 31.81,15.980004 63.59867,32.289294 96.13867,46.529294 2.48,1.08667 8.65482,3.59792 18.52148,7.53125 5.86001,2.34 12.13365,4.99542 18.82032,7.96875 2.88,1.28 5.01992,2.44047 6.41992,3.48047 5.3,2.1 10.42557,4.40039 15.37891,6.90039 0.55333,0.28667 1.07078,0.50682 1.55078,0.66016 0.46,0.15333 0.48674,0.0998 0.0801,-0.16016 -14.44,-9.02 -29.71117,-17.02086 -44.70117,-25.13086 l -13.63867,-6.57812 c -0.12667,-0.0667 -0.15651,-0.16125 -0.0898,-0.28125 l 0.1289,-0.26953 c 0.0133,-0.0267 0.037,-0.0329 0.0703,-0.0195 l 13.84961,6.49024 15.84179,8.19336 c -0.0167,-0.0197 -0.0399,-0.0276 -0.0312,-0.084 0.0133,-0.0867 -0.0103,-0.14945 -0.0703,-0.18945 l -15.06055,-9.48047 c -4.70666,-2.17333 -9.2869,-4.56015 -13.74023,-7.16015 -7.74,-4.53334 -12.19271,-7.11667 -13.35938,-7.75 -14.95333,-8.12 -26.8731,-14.6231 -35.75976,-19.50977 -7.52,-4.14 -16.35094,-9.849534 -24.46094,-14.269535 -1.05333,-0.573333 -2.01534,-1.260544 -2.88867,-2.060547 -0.14,-0.133333 -0.32102,-0.213567 -0.54102,-0.240234 l -3.86914,-2.099609 a 0.39,0.39 0 0 1 0.0488,-0.710938 c 4.58667,-1.76 9.08357,-3.722005 13.49024,-5.888672 2.84,-1.393333 7.33999,-3.347994 13.5,-5.861328 9.87333,-4.026666 19.74466,-8.050312 29.61132,-12.070312 l 14.45899,-6.759766 c 1.24666,-0.58 1.27341,-1.216823 0.0801,-1.910156 l -16.58008,-9.568359 c -0.32667,-0.186667 -0.6755,-0.270002 -1.04883,-0.25 z m 56.2207,105.863286 c 0.009,0.0106 10e-4,0.0449 0.0176,0.0449 0.0533,0 0.0584,-0.009 0.0117,-0.0293 z M 288.69938,56.918975 c -0.41335,-0.01333 -0.67573,0.176979 -0.78907,0.570312 l -2.45117,8.570313 a 0.81,0.82 13 0 0 0.63086,1.019531 c 0.64,0.12 1.20589,0.38125 1.69922,0.78125 a 0.52,0.95 19.9 0 1 0.13086,0.859375 c -0.17,0.65 -0.69016,2.390547 -1.16016,3.310547 -7.03333,13.753333 -13.78333,27.658753 -20.25,41.718757 -0.14,0.3 -0.35086,0.5407 -0.63086,0.7207 l -9.85937,6.41992 13.5,8.54102 a 1.5,1.49 48 0 0 1.46093,0.0781 c 5.94,-2.92666 11.86907,-5.99875 17.78907,-9.21875 13.47,-7.33 20.15961,-10.8707 33.34961,-17.9707 9.86,-5.310004 20.02078,-10.208911 31.05078,-15.878911 2.05333,-1.06 3.86302,-2.420078 5.42969,-4.080078 2.90666,-3.086667 5.06403,-5.809922 6.4707,-8.169922 2.22667,-3.74 4.11039,-6.471406 5.65039,-8.191406 0.48,-0.493333 0.85247,-1.16 1.11914,-2 0.11333,-0.353333 -0.0173,-0.535495 -0.39062,-0.548828 -3.68,-0.09998 -7.13874,-0.130449 -10.96876,-0.730449 -10.20666,-1.606667 -21.00395,-2.78573 -32.39062,-3.539062 -18.00667,-1.186667 -31.13731,-1.941719 -39.39062,-2.261719 z m 281.65624,0.242187 c 1.05125,-0.0425 0.59024,0.262969 -1.38476,0.917969 -2.37333,0.786667 -4.66753,1.513023 -6.88086,2.179687 -25.3,10.533334 -42.13333,17.491094 -50.5,20.871094 -0.60667,0.24 -1.36906,-0.140625 -2.28906,-1.140625 -1.08,-0.186666 -1.8711,-0.883178 -2.3711,-2.089843 -0.13333,-0.320003 -0.13953,-0.647136 -0.0195,-0.980469 l 5.99024,-16.039063 a 0.7,0.7 0 0 1 0.60937,-0.449218 c 12.08,-0.640001 26.80326,-1.517527 44.16992,-2.63086 4.2,-0.27 7.7211,-0.04047 11.1211,-0.480469 0.68666,-0.09167 1.20427,-0.144036 1.55468,-0.158203 z m -393.67578,12.75 c 0.51625,-0.16375 0.65969,0.197891 0.42969,1.087891 -0.21333,0.806667 -0.51992,1.577213 -0.91992,2.310547 l -3.73047,14.089844 a 0.45,0.46 5.3 0 1 -0.4082,0.349609 l -13.31055,0.990234 -5.28125,0.75 c -0.38667,0.05333 -0.42891,-0.0424 -0.12891,-0.289062 4.72,-3.893334 9.74365,-8.280154 15.07032,-13.160157 1.75333,-1.599997 4.29867,-3.531015 7.63867,-5.791015 0.255,-0.171667 0.46854,-0.283307 0.64062,-0.337891 z m 131.14063,0.689453 c 11.4,0.553334 22.8969,1.586276 34.49023,3.09961 0.61334,0.08 0.78,0.395885 0.5,0.949219 -0.24666,0.48 -0.71992,0.940859 -1.41992,1.380859 -1.32,1.133333 -2.73047,2.130234 -4.23047,2.990234 -13.94,7.96 -28.23729,15.621619 -42.89062,22.988283 l -3.45899,1.66016 a 0.43,0.43 0 0 1 -0.60156,-0.5 c 0.2,-0.68667 0.49729,-1.41922 0.89063,-2.19922 5.22666,-10.493337 10.02705,-19.93365 14.40039,-28.320316 0.36,-0.686667 0.83015,-1.27 1.41015,-1.75 0.26667,-0.213336 0.57016,-0.312162 0.91016,-0.298829 z m 46.75976,20.898438 c -8.98,3.746667 -18.43776,8.276513 -28.37109,13.589847 l -53.25976,28.48047 c -1.30667,0.7 -1.67915,1.41086 -1.11915,2.13086 8.72667,-4.6 17.53326,-9.14419 26.41993,-13.63086 17.39,-8.8 35.58054,-18.82891 52.06054,-26.628911 1.76,-0.833333 3.18287,-2.148073 4.26953,-3.941406 z m -177.77929,38.240237 -13.1211,8.50977 c -0.52,-0.12667 -0.65682,0.17062 -0.41015,0.89062 a 0.28,0.27 68.4 0 0 0.35937,0.16016 c 4.92667,-2.19334 9.31854,-5.38055 13.17188,-9.56055 z" />
  <g
     stroke-width="0"
     fill="none"
     id="stroke"
     transform="translate(-215.91,-3.2802444)"
     style="display:none">
    <path
       id="path72"
       style="stroke:#000000;stroke-width:1;stroke-dasharray:none;stroke-opacity:1"
       d="M 557.3,79.31 523.85,76.2 q -1.04,-0.09 -1.45,0.87 l -12.22,28.22 M 557.3,79.31 q 1.05,-0.66 1.42,-1.38 0.42,-0.83 -0.5,-0.95 -17.39,-2.27 -34.49,-3.1 -0.51,-0.02 -0.91,0.3 -0.87,0.72 -1.41,1.75 -6.56,12.58 -14.4,28.32 -0.59,1.17 -0.89,2.2 a 0.43,0.43 0 0 0 0.6,0.5 l 3.46,-1.66 m 0,0 q 21.98,-11.05 42.89,-22.99 2.25,-1.29 4.23,-2.99 M 778,63.54 732.07,66.91 a 1.93,1.92 7.3 0 0 -1.69,1.3 l -5.17,15.06 M 778,63.54 q 3.32,-1 6.88,-2.18 3.95,-1.31 -0.17,-0.76 c -3.4,0.44 -6.92,0.21 -11.12,0.48 q -26.05,1.67 -44.17,2.63 a 0.7,0.7 0 0 0 -0.61,0.45 l -5.99,16.04 q -0.18,0.5 0.02,0.98 0.75,1.81 2.37,2.09 m 0,0 q 1.38,1.5 2.29,1.14 12.55,-5.07 50.5,-20.87 M 392.1,76.59 374.65,92.02 M 392.1,76.59 q 0.6,-1.1 0.92,-2.31 0.46,-1.78 -1.07,-0.75 -5.01,3.39 -7.64,5.79 -7.99,7.32 -15.07,13.16 -0.45,0.37 0.13,0.29 l 5.28,-0.75 m 0,0 13.31,-0.99 a 0.45,0.46 5.3 0 0 0.41,-0.35 l 3.73,-14.09 m 178.39,18.19 q -13.47,5.62 -28.37,13.59 -26.63,14.24 -53.26,28.48 -1.96,1.05 -1.12,2.13 m 98.89,-69.7 q -2.31,2.58 -5.65,8.19 -2.11,3.54 -6.47,8.17 -2.35,2.49 -5.43,4.08 c -11.03,5.67 -21.19,10.57 -31.05,15.88 -13.19,7.1 -19.88,10.64 -33.35,17.97 q -8.88,4.83 -17.79,9.22 a 1.5,1.49 48 0 1 -1.46,-0.08 l -13.5,-8.54 m 114.7,-54.89 q 0.72,-0.74 1.12,-2 0.17,-0.53 -0.39,-0.55 C 583.68,66.63 580.22,66.6 576.39,66 Q 561.08,63.59 544,62.46 516.99,60.68 504.61,60.2 q -0.62,-0.02 -0.79,0.57 l -2.45,8.57 a 0.81,0.82 13 0 0 0.63,1.02 q 0.96,0.18 1.7,0.78 a 0.52,0.95 19.9 0 1 0.13,0.86 c -0.17,0.65 -0.69,2.39 -1.16,3.31 q -10.55,20.63 -20.25,41.72 -0.21,0.45 -0.63,0.72 l -9.86,6.42 m 98.56,-29.39 q 3.6,-4.33 8.03,-9.77 3.11,-3.8 8.11,-15.73 m -98.89,69.7 q 13.09,-6.9 26.42,-13.63 c 17.39,-8.8 35.58,-18.83 52.06,-26.63 q 2.64,-1.25 4.27,-3.94 m -98.56,29.39 q -0.89,-0.08 -1.5,0.71 -0.36,0.46 0.11,0.8 c 1.17,0.85 1.55,1.97 2.79,2.93 q 6.65,5.15 14.41,10.37 m 212.43,7.65 -15.18,-9.55 a 1.22,1.22 0 0 1 -0.3,-1.81 q 0.78,-0.95 1.31,-2.22 2.6,-6.26 7.09,-18.52 0.79,-2.17 0.75,-5.03 m 170.79,57.52 q -2.1,-1.56 -6.42,-3.48 -10.03,-4.46 -18.82,-7.97 -14.8,-5.9 -18.52,-7.53 C 788.33,133.8 756.54,117.49 724.73,101.51 q -1.93,-0.97 -8.2,-3.52 -0.54,-0.22 -0.63,0.35 c -0.29,1.99 -1.05,4.72 -1.82,6.59 q -3.09,7.6 -6.27,15.17 -0.98,2.33 -1.26,5.26 -0.27,2.71 -0.41,5.44 m 131.12,17.83 -13.85,-6.49 q -0.05,-0.02 -0.07,0.02 l -0.13,0.27 q -0.1,0.18 0.09,0.28 l 13.64,6.58 M 747.73,96.32 q 1.31,1.2 2.89,2.06 c 8.11,4.42 16.94,10.13 24.46,14.27 q 13.33,7.33 35.76,19.51 1.75,0.95 13.36,7.75 6.68,3.9 13.74,7.16 M 799.97,69.45 q -14.8,6.03 -29.61,12.07 -9.24,3.77 -13.5,5.86 -6.61,3.25 -13.49,5.89 a 0.39,0.39 0 0 0 -0.05,0.71 l 3.87,2.1 m 52.78,-26.63 14.46,-6.76 q 1.87,-0.87 0.08,-1.91 l -16.58,-9.57 q -0.49,-0.28 -1.05,-0.25 L 717,54.58 q -0.91,0.04 -1.25,0.88 l -21.91,54.04 m 53.35,-13.42 q 0.19,-0.58 0.61,-0.76 23.86,-10.46 46.88,-20.4 9.38,-4.04 18.39,-8.78 0.26,-0.14 0.14,-0.41 l -0.12,-0.28 q -0.07,-0.17 -0.24,-0.1 -5.81,2.35 -11.74,4.46 -1.3,0.47 -1.14,-0.36 m -52.24,26.87 q -0.21,-0.2 -0.54,-0.24 m 90.75,50.99 q -0.07,-0.71 -0.54,-0.99 -14.39,-8.58 -33.83,-19.14 -8.31,-4.51 -17.37,-9.91 -15.89,-9.47 -35.34,-19.87 -1.46,-0.78 -3.13,-0.84 m 89.53,52.31 15.87,8.21 q 0.07,0.03 -0.01,0.03 -0.07,0 -0.05,-0.13 0.02,-0.13 -0.07,-0.19 l -15.06,-9.48 m -1,2.22 q 0.08,-0.45 0.32,-0.66 m 27.37,18.39 q 7.95,3.15 15.38,6.9 0.83,0.43 1.55,0.66 0.69,0.23 0.08,-0.16 C 867.2,165.4 851.93,157.4 836.94,149.29 m -130.8,-18.49 10.87,-28.1 a 0.66,0.66 0 0 1 0.91,-0.35 q 31.78,15.98 54.43,27.05 48.13,23.54 102.06,43.91 0.2,0.08 0.32,-0.11 l 0.01,-0.01 q 0.12,-0.19 -0.13,-0.33 l -9.98,-5.84 m -164.46,-20.39 5.97,-15.83 m -12.3,-21.3 -11.6,28.5 q -0.21,0.52 0.23,0.87 7.75,6.09 16.15,10.47 0.48,0.24 0.66,-0.26 l 0.89,-2.45 m -307.46,-13.61 -13.12,8.51 M 315.74,49.06 q -0.93,4.75 -1.96,9.29 -1.25,5.5 -1.88,9.3 -1.16,7.06 -3.34,18.88 -1.12,6.07 -2.63,9.7 -0.82,1.95 0.67,0.45 2.05,-2.08 3.99,-4.88 M 284.55,24.61 q -1.18,2.58 -2.52,4.9 -1.6,2.75 -2.33,4.95 -7.08,21.21 -14.3,44.44 -2.82,9.09 -6.64,17.87 -0.33,0.76 0.29,0.21 l 5.31,-4.77 m 17.01,13.57 1.55,-5.48 q 0.2,-0.72 -0.37,-0.25 l -46.32,38.07 m 92.8,-29.46 q 1.05,-0.55 1.84,-1.68 0.3,-0.43 0.75,-0.68 l 1.86,-1.05 q 0.77,-0.43 -0.11,-0.34 l -10.58,1.08 a 4.02,4.01 18 0 0 -2.56,1.3 q -12.93,14.22 -29.14,32.45 c -1.67,1.89 -1.83,3.81 -5.2,2.56 q -5.27,-1.95 -6.66,-2.86 -0.54,-0.36 -0.43,-0.99 l 0.5,-2.95 q 0.23,-1.37 -0.81,-0.45 -1.59,1.41 -3.21,3.96 m 112.64,-33.76 0.95,-4.43 a 0.37,0.37 0 0 0 -0.53,-0.4 c -1.69,0.88 -3.42,0.57 -4.9,0.69 q -11.95,1.01 -26.38,2.73 a 1.36,1.36 0 0 0 -0.84,0.43 c -3.93,4.14 -7.51,7.38 -11.39,11.5 q -10.75,11.44 -22.38,23.44 c -2.12,2.19 -5.44,5.69 -8.59,6.84 q -3.45,1.26 -7.33,0.97 m 106.38,-44.68 1.83,-2.52 q 0.51,-0.7 -0.35,-0.6 l -7.03,0.83 a 2.3,2.29 8.5 0 0 -1.81,1.33 q -2.79,6.26 -4.97,14.82 -1.98,7.74 -6.27,12.36 -4.32,4.65 -13.74,9.9 m 117.48,-78.5 q -1.61,0.51 -2.44,2.14 c -6.32,12.5 -11.31,22.11 -17.38,34.82 q -5.05,10.57 -11.97,24.11 a 1.82,1.81 12.2 0 1 -1.53,0.98 l -13.17,0.6 a 1.28,1.28 0 0 1 -1.23,-0.77 L 438.26,93.9 a 0.55,0.55 0 0 0 -0.93,-0.13 q -1.6,1.92 -2.19,3.12 -5.56,11.44 -12.31,24.78 a 2.52,2.53 13.8 0 1 -2.26,1.37 l -18.34,-0.09 m 13.15,-59.77 q -1.3,1.77 -1.78,3.78 -0.74,3.11 -1.06,3.92 -1.02,2.58 -1.37,4.36 -1.45,7.31 -4.57,14.17 a 0.7,0.7 0 0 0 0.43,0.96 q 1.05,0.32 1.79,-0.38 m -5.15,-75.6 Q 392.53,25.22 382.51,34 q -0.8,0.71 -1.04,1.09 -0.65,1.03 0.49,0.59 3.71,-1.43 8.07,-0.97 a 0.49,0.49 0 0 1 0.26,0.86 q -2.28,1.93 -5.74,5.47 -22.63,23.12 -46.95,49.9 c -0.67,0.74 -1.88,1.85 -2.96,2.67 q -0.72,0.55 0.17,0.4 l 3.93,-0.63 m 64.93,-78.99 q -5.8,-0.76 -11.27,2.7 -4.4,2.79 -5.64,3.31 -2.5,1.04 -9.5,2.85 -2.17,0.56 -2.9,1.35 -12.73,13.74 -34.91,36.71 C 330.5,70.58 320.44,81.8 310.59,91.8 m 28.15,1.58 q 8.99,-10.19 17.81,-20.19 c 3.06,-3.49 6.98,-6.67 9.67,-10.46 q 1.04,-1.46 2.15,-2.37 c 0.9,-0.74 1.35,-1.9 2.31,-2.63 q 1.04,-0.8 1.88,-1.75 3.92,-4.47 6.33,-6.76 c 1.28,-1.23 2.35,-2.99 3.36,-3.97 q 8.61,-8.39 10.65,-10.22 a 0.85,0.85 0 0 0 -0.22,-1.41 q -2.21,-0.97 -3.75,-0.74 -1.37,0.21 -0.45,-0.81 5.2,-5.79 10.4,-9.81 c 0.92,-0.71 1.57,-2.06 2.98,-2.48 q 0.46,-0.14 0.63,-0.6 l 0.55,-1.48 q 0.17,-0.43 0.52,-0.74 0.21,-0.18 0.34,-0.44 a 0.5,0.5 0 0 0 -0.3,-0.71 q -1.19,-0.35 0.07,-1.42 m 11.71,48.79 q 1.53,-7.66 5.24,-15.71 0.83,-1.81 -0.98,-0.97 l -0.77,0.36 q -1.45,0.67 -0.89,-0.82 l 1.5,-4.02 q 0.59,-1.58 -0.95,-0.89 -0.82,0.37 -2.6,0.41 a 0.71,0.7 78.6 0 1 -0.67,-0.45 l -0.36,-0.88 q -0.17,-0.41 -0.62,-0.38 -2.55,0.18 -3.35,0.85 c -3.1,2.59 -6.67,5.19 -9.46,7.57 q -16.02,13.59 -32.06,27.16 -12.04,10.17 -21.28,16.72 c -2.36,1.67 -6.46,1.09 -9.39,1.25 m 70.08,-3.39 6.56,-26.81 m 82.67,-3.22 q 0.68,-1.29 -2.53,-0.9 -1.53,0.19 -4.03,0.04 c -4,-0.23 -6.99,0.25 -12.02,0.44 a 1.88,1.89 12.2 0 0 -1.62,1.05 l -16.26,32.86 q -0.92,1.85 -1.7,-0.07 l -12.63,-31 a 0.51,0.5 66.7 0 0 -0.67,-0.27 q -1.23,0.54 -2.76,0.44 -6.28,-0.4 -12.55,-0.03 -0.63,0.04 -0.42,0.64 0.19,0.57 0.56,0.97 a 1.28,1.29 36.4 0 1 0.21,1.43 l -11.19,22.59 q -0.45,0.91 -1.45,0.99 l -10.17,0.85 m -6.59,32.96 -0.94,4.48 a 0.59,0.59 0 0 0 0.6,0.71 l 21.48,-0.98 a 1.33,1.32 11.3 0 0 1.15,-0.76 l 13.01,-27.47 q 0.35,-0.73 0.63,0.03 3.54,9.69 8.13,21.01 1.09,2.67 2.99,6.29 a 1.06,1.06 0 0 0 0.9,0.56 q 8.94,0.27 15.47,-0.91 0.62,-0.12 0.9,0.44 0.3,0.59 0.87,0.54 a 0.74,0.74 0 0 0 0.62,-0.46 q 4.15,-10.43 6.47,-15.4 11.93,-25.5 23.54,-51.07 m -85.14,42.38 -10.68,20.61 m -9.52,10.07 q 5.34,-5.15 7.9,-13.09 2.7,-8.4 5.33,-16.45 a 1.07,1.06 6.9 0 1 0.94,-0.73 l 6.03,-0.41 m -33.32,39.19 q -0.78,-0.19 -0.41,0.89 a 0.28,0.27 68.4 0 0 0.36,0.16 q 7.39,-3.29 13.17,-9.56 m -12.14,5.44 q -0.9,0.49 -0.98,3.07 m 8.33,-36.28 -7.35,33.21 m -74.04,8.56 c 3.4,1.17 11.49,2.4 14.35,-0.64 q 15.98,-16.98 23.92,-25.33 6.01,-6.31 12.34,-12.08 c 1.16,-1.06 2.49,-1.2 3.98,-1.34 q 13.4,-1.25 26.8,-2.38 m -58.89,3.41 q -13.5,13.79 -25.59,28.74 c -1.66,2.05 -4.16,4.57 -5.7,7.48 a 0.31,0.31 0 0 0 0.21,0.45 l 8.58,1.69 m -31.25,-8.01 q 1.59,0.71 6.33,3.91 2.37,1.59 8.86,2.74 0.51,0.09 0.79,-0.34 1.81,-2.75 4.16,-5.41 13.99,-15.8 26.67,-30.17 0.33,-0.37 0.82,-0.43 l 6.12,-0.65 m -47.66,-2.88 -6.09,33.23 m -39.05,-0.89 5.79,0.22 q 0.51,0.02 0.91,-0.28 1.32,-0.98 2.53,-2.08 11.54,-10.48 27.96,-23.83 3.76,-3.05 7.95,-6.37 m 3.18,-81.17 q 0.86,-0.68 0.68,-1.8 -0.19,-1.15 -1.3,-0.8 -16.48,5.25 -28.25,9.63 -0.77,0.28 -1.79,1.02 -0.45,0.32 -0.49,0.87 -0.32,4.45 -4.22,16.16 -13.4,40.16 -22.54,62.52 -2.64,6.45 -5.87,10.56 -3.75,4.75 -4.24,5.5 -0.26,0.4 -0.02,0.82 l 4.04,6.99 a 0.91,0.92 78.5 0 0 0.7,0.46 l 14.98,1.58 m 28.13,-45.91 q 0.8,-2.74 1.59,-5.19 9.54,-29.53 18.21,-59.33 0.53,-1.83 0.39,-3.08 m 31.19,24.45 q -0.43,-0.44 -1.46,-0.59 a 0.91,0.9 23.7 0 0 -0.82,0.31 q -3.12,3.71 -4.81,5.13 -18.55,15.54 -31,26.73 -6.38,5.73 -13.29,11.57 m 46.23,-0.41 c 0.11,-2.35 0.91,-4.8 1.15,-6.77 q 2,-15.92 4.52,-31.76 0.36,-2.27 -0.52,-4.21 m 371.01,54.4 q -0.58,3.23 -1.24,6.46 c -0.44,2.15 -1.44,3.16 -3.51,3.6 q -32.35,6.91 -65.51,15.6 a 0.34,0.35 2.4 0 1 -0.41,-0.45 q 0.13,-0.39 0.03,-0.61 a 1.15,0.09 68.1 0 0 -0.4,-0.81 q -1.41,-1.53 -1.07,-2.68 1.08,-3.68 0.69,-7.02 -0.06,-0.44 0.12,-0.86 l 0.36,-0.86 q 0.6,-1.44 -0.87,-0.94 l -54.65,18.36 a 2.99,2.99 0 0 1 -3.2,-0.87 l -4.7,-5.4 M 680.95,79.77 q -0.46,3.82 -2.33,7 a 1.71,1.74 13.3 0 1 -1.35,0.85 q -14.91,1.26 -30.68,2.78 c -2.9,0.28 -6.65,5.17 -7.29,6.66 q -2.48,5.77 -5.21,11.5 a 0.44,0.43 22.1 0 0 0.26,0.6 q 1.1,0.36 2.64,0.22 m 65.77,-52.07 q -1.43,0.41 -1.53,1.7 c -0.19,2.33 -0.21,6.26 -2.67,6.54 q -8,0.92 -19.55,1.45 -9.17,0.42 -21.21,1.91 a 2.29,2.24 11.1 0 0 -1.69,1.11 l -5.64,9.78 a 0.59,0.59 0 0 0 0.44,0.88 l 2.47,0.28 M 633.78,4.15 q 1.11,1.42 0.63,3.56 c -1.73,7.68 -3.76,15.14 -7.19,21.95 -2.32,4.61 -5.12,10.28 -7.21,14.02 q -19.66,35.1 -36.42,66.35 a 0.33,0.33 0 0 0 0.27,0.48 q 2.31,0.17 3.29,-0.76 M 633.78,4.15 q -0.48,-0.38 -0.87,-0.27 -0.3,0.08 -0.47,0.58 -0.8,2.33 -1.97,4.56 -0.28,0.53 -0.88,0.56 l -1.27,0.06 a 2.33,2.32 13.3 0 0 -1.92,1.18 q -1.34,2.37 -6.41,11.91 c -0.98,1.85 -3.65,3.77 -4.66,5.93 -1.88,4.06 -3.72,8.52 -6.68,11.65 q -0.25,0.26 -0.86,0.41 -0.37,0.09 -1.15,-0.01 a 0.77,1.19 34.1 0 0 -0.85,0.36 q -0.48,0.48 -1.96,2.98 -9.91,16.78 -43.84,72.92 -1.5,2.49 -6.46,7.57 -0.53,0.54 -1.14,2.44 m 34.76,-17.23 q 22.03,-41.33 42.87,-82.72 1.97,-3.92 2.86,-7.54 0.82,-3.34 1.99,-7.49 0.97,-3.41 1.3,-7.69 a 0.49,0.5 86.4 0 0 -0.6,-0.52 l -1.79,0.36 m 68.98,53.16 q 0.41,-0.35 0.47,-0.72 0.11,-0.7 -0.61,-0.67 l -57.14,2.59 a 1,1 0 0 0 -0.81,0.5 C 638.49,70.22 633,80.99 626.96,90.95 q -1.67,2.75 -3.06,6.2 c -0.88,2.18 -2.13,3.98 -4.8,4.61 q -15.62,3.72 -31.95,7.99 m 66.23,-28.79 3.99,-8 a 2.06,2.05 10.5 0 1 1.67,-1.14 q 20.16,-1.76 36.73,-2.63 3.1,-0.16 4.66,-1.39 c 3.05,-2.39 5.39,-6.42 7.36,-10.03 a 0.5,0.5 0 0 0 -0.46,-0.73 q -1.59,0.07 -3.32,0.97 -0.48,0.25 -0.96,-0.01 -0.47,-0.26 -0.29,-0.69 m -21.81,22.46 c -2.61,0.07 -4.75,0.27 -7.6,-0.04 -3,-0.32 -6.6,0.38 -8.71,0.51 q -5.56,0.36 -11.26,0.72 m -16.39,28.42 7.34,-13.75 q 0.37,-0.69 1.15,-0.78 l 34.32,-4.07 a 1.41,1.42 4.7 0 0 1.19,-1.02 l 2.66,-9.32 q 0.15,-0.53 -0.4,-0.55 l -2.3,-0.12 m 5.8,23.69 q -2.86,-0.04 -5.59,0.95 a 1.82,1.85 40 0 1 -0.94,0.09 c -1.33,-0.21 -2.28,-0.4 -3.79,-0.2 q -19.74,2.51 -39.44,5.08 m -84.6,17.6 -1.88,3.77 q -0.24,0.47 0.09,0.88 l 5.05,6.3 a 1.33,1.35 63.1 0 0 1.41,0.45 q 1.25,-0.35 4.66,-1.49 24.22,-8.1 51.9,-18.66 a 0.15,0.15 0 0 1 0.21,0.14 l -0.11,9.27 q -0.01,0.65 0.55,0.97 l 1.04,0.6 q 0.34,0.2 0.2,0.56 l -0.44,1.19 a 0.74,0.74 0 0 0 0.77,1 q 3.13,-0.31 6.29,-1.06 42.49,-10.07 61.7,-14.55 a 2.14,2.13 3.6 0 0 1.52,-1.33 l 3.71,-9.95 q 0.17,-0.45 -0.12,-0.83 -0.58,-0.75 -2.19,-0.78" />
  </g>
  <path
     id="highlight"
     d="m 419.66031,0.50881808 -1.79101,0.3613281 c 0.74,0.94666672 0.95086,2.13388022 0.63086,3.56054692 -1.73,7.6799999 -3.75946,15.1392189 -7.18946,21.9492189 -2.32,4.61 -5.12093,10.279531 -7.21093,14.019532 -13.10667,23.4 -25.24659,45.516276 -36.41993,66.349616 a 0.33,0.33 0 0 0 0.26954,0.48047 c 1.53999,0.11333 2.63768,-0.13977 3.29101,-0.75977 14.68667,-27.553337 28.97581,-55.127374 42.86914,-82.720707 1.31333,-2.613333 2.268,-5.125729 2.86133,-7.539063 0.54667,-2.226666 1.20828,-4.723567 1.98828,-7.4902344 0.64667,-2.2733333 1.08078,-4.8361198 1.30078,-7.6894531 A 0.49,0.5 86.4 0 0 419.66031,0.50881808 Z M 187.75992,11.110381 c -7.42666,7.22 -14.48015,13.756042 -21.16015,19.609375 -0.53334,0.473333 -0.87907,0.83651 -1.03907,1.089844 -0.43333,0.686666 -0.26976,0.883177 0.49024,0.589844 2.47333,-0.953334 5.16169,-1.275417 8.06836,-0.96875 a 0.49,0.49 0 0 1 0.25976,0.859374 c -1.52,1.286667 -3.43161,3.108751 -5.73828,5.46875 -15.08667,15.413334 -30.73784,32.047058 -46.95117,49.900391 -0.67,0.74 -1.87898,1.849922 -2.95899,2.669922 -0.47999,0.366667 -0.42341,0.500391 0.16993,0.400391 l 3.92968,-0.628907 c 5.99334,-6.793333 11.93055,-13.524739 17.81055,-20.191406 3.06,-3.49 6.97992,-6.668984 9.66992,-10.458984 0.69334,-0.973334 1.40844,-1.764427 2.14844,-2.371094 0.9,-0.74 1.35055,-1.898906 2.31055,-2.628906 0.69333,-0.533334 1.32086,-1.116667 1.88086,-1.75 2.61333,-2.98 4.72341,-5.233099 6.33007,-6.759766 1.28,-1.23 2.34938,-2.990703 3.35938,-3.970703 5.74,-5.593333 9.29039,-9.000703 10.65039,-10.220703 a 0.85,0.85 0 0 0 -0.2207,-1.410156 c -1.47334,-0.646667 -2.72334,-0.891615 -3.75,-0.738282 -0.91334,0.14 -1.06255,-0.130546 -0.44922,-0.810547 3.46667,-3.86 6.93372,-7.130546 10.40039,-9.810546 0.92,-0.71 1.56851,-2.060469 2.97852,-2.480469 0.30666,-0.09333 0.51752,-0.292943 0.63085,-0.599609 l 0.54883,-1.480469 c 0.11334,-0.286667 0.28815,-0.531615 0.52149,-0.738281 0.14,-0.12 0.25317,-0.268073 0.33984,-0.441407 a 0.5,0.5 0 0 0 -0.30078,-0.708984 c -0.79333,-0.233333 -0.76969,-0.706589 0.0703,-1.419922 z M 68.64078,21.329131 c -0.78667,1.72 -1.62815,3.353724 -2.52148,4.900391 -1.06667,1.833333 -1.84341,3.484505 -2.33008,4.951172 -4.72,14.139999 -9.4855,28.952786 -14.29883,44.439453 -1.88,6.06 -4.09396,12.015807 -6.64062,17.86914 -0.22,0.506667 -0.12232,0.577604 0.29101,0.210938 l 5.3086,-4.769531 c 0.53333,-1.826667 1.06317,-3.558073 1.58984,-5.191407 6.36,-19.686666 12.43094,-39.463411 18.21094,-59.330078 0.35333,-1.22 0.48395,-2.246745 0.39062,-3.080078 z m 31.18945,24.451172 c -0.62,3.166667 -1.27427,6.262396 -1.96093,9.289062 -0.83334,3.666667 -1.45891,6.767448 -1.87891,9.300782 -0.77333,4.706666 -1.88651,10.998906 -3.33984,18.878906 -0.74667,4.046667 -1.6242,7.281172 -2.63086,9.701172 -0.54667,1.3 -0.32341,1.449219 0.66992,0.449219 1.36667,-1.386667 2.6969,-3.01224 3.99023,-4.878907 0.11,-2.35 0.91039,-4.801484 1.15039,-6.771484 1.33334,-10.613333 2.83954,-21.199766 4.51954,-31.759766 0.24,-1.513333 0.0671,-2.915651 -0.51954,-4.208984 z m 391.58985,7.978515 c -1.06,0.04667 -2.16698,0.370704 -3.32031,0.970704 -0.32,0.166666 -0.63899,0.163567 -0.95899,-0.0098 -0.31333,-0.173333 -0.41101,-0.402786 -0.29101,-0.689453 -0.95334,0.273333 -1.46263,0.839219 -1.5293,1.699219 -0.19,2.33 -0.20992,6.261015 -2.66992,6.541015 -5.33334,0.613334 -11.85078,1.095886 -19.55078,1.449219 -6.11334,0.28 -13.18232,0.916823 -21.20899,1.910156 a 2.29,2.24 11.1 0 0 -1.6914,1.109375 l -5.63868,9.78125 a 0.59,0.59 0 0 0 0.43946,0.878907 l 2.4707,0.28125 3.98828,-8 a 2.06,2.05 10.5 0 1 1.66992,-1.140626 c 13.44,-1.173333 25.6838,-2.050859 36.73047,-2.630859 2.06667,-0.106667 3.62016,-0.568672 4.66016,-1.388672 3.05,-2.39 5.38937,-6.42125 7.35937,-10.03125 a 0.5,0.5 0 0 0 -0.45898,-0.730469 z m -209.2793,2.921876 c -1.07333,0.34 -1.88807,1.052005 -2.4414,2.138671 -6.32,12.5 -11.30891,22.110313 -17.37891,34.820313 -3.36667,7.046672 -7.35737,15.082712 -11.9707,24.109382 a 1.82,1.81 12.2 0 1 -1.5293,0.98047 l -13.16992,0.59961 a 1.28,1.28 0 0 1 -1.23047,-0.76954 L 222.34977,90.620147 a 0.55,0.55 0 0 0 -0.92969,-0.13086 c -1.06667,1.28 -1.79612,2.321094 -2.18946,3.121094 -3.70666,7.626669 -7.81054,15.885969 -12.31054,24.779299 a 2.52,2.53 13.8 0 1 -2.25977,1.36914 l -18.33984,-0.0898 -0.94141,4.48047 a 0.59,0.59 0 0 0 0.60156,0.71093 l 21.47852,-0.98046 a 1.33,1.32 11.3 0 0 1.15039,-0.75977 L 221.6193,95.649444 c 0.23333,-0.486667 0.44419,-0.475417 0.63086,0.03125 2.36,6.460006 5.0689,13.463106 8.1289,21.009766 0.72667,1.78 1.72357,3.87573 2.99024,6.28907 a 1.06,1.06 0 0 0 0.90039,0.56054 c 5.96,0.18 11.11737,-0.12349 15.4707,-0.91015 0.41333,-0.08 0.71372,0.0661 0.90039,0.43945 0.2,0.39333 0.48914,0.57435 0.86914,0.54101 a 0.74,0.74 0 0 0 0.61914,-0.46093 c 2.76667,-6.95334 4.92404,-12.08706 6.47071,-15.40039 7.95333,-17.000007 15.80101,-34.0217 23.54101,-51.068366 z m 288.21484,0.480468 c -0.35041,0.01417 -0.86802,0.06654 -1.55468,0.158203 -3.4,0.44 -6.9211,0.210469 -11.1211,0.480469 -17.36666,1.113333 -32.08992,1.990859 -44.16992,2.63086 a 0.7,0.7 0 0 0 -0.60937,0.449218 l -5.99024,16.039063 c -0.12,0.333333 -0.1138,0.660468 0.0195,0.980469 0.5,1.206666 1.2911,1.903177 2.3711,2.089843 l 5.16992,-15.058593 a 1.93,1.92 7.3 0 1 1.68945,-1.300782 L 562.09,60.258818 c 2.21333,-0.666666 4.50753,-1.39302 6.88086,-2.179687 1.975,-0.655 2.43601,-0.960469 1.38476,-0.917969 z m -370.88476,2.738282 c -0.86667,1.18 -1.46125,2.44125 -1.78125,3.78125 -0.49333,2.073333 -0.84721,3.379921 -1.06055,3.919921 -0.68,1.72 -1.1358,3.172709 -1.36914,4.359375 -0.96666,4.873334 -2.49031,9.596589 -4.57031,14.169922 a 0.7,0.7 0 0 0 0.42969,0.958985 c 0.7,0.213333 1.29768,0.08776 1.79101,-0.378907 z M 597.08414,62.0596 c -0.04,-0.01667 -0.0879,-0.01357 -0.14453,0.0098 -3.87333,1.566667 -7.7869,3.054271 -11.74023,4.460938 -0.86667,0.313333 -1.24534,0.192005 -1.13868,-0.361328 -9.86666,4.02 -19.73799,8.043646 -29.61132,12.070312 -6.16,2.513334 -10.66001,4.467995 -13.5,5.861328 -4.40667,2.166667 -8.90357,4.128672 -13.49024,5.888672 a 0.39,0.39 0 0 0 -0.0488,0.710938 l 3.86914,2.099609 c 0.12667,-0.386667 0.33133,-0.639765 0.61133,-0.759766 15.90667,-6.973333 31.53224,-13.773723 46.87891,-20.40039 6.25333,-2.693333 12.38396,-5.619297 18.39062,-8.779297 0.17334,-0.09333 0.22063,-0.230156 0.14063,-0.410156 l -0.1211,-0.28125 c -0.0233,-0.05667 -0.0557,-0.09271 -0.0957,-0.109375 z m -226.36328,3.939453 c -1.54,1.72 -3.42372,4.451406 -5.65039,8.191406 -1.40667,2.36 -3.56404,5.083255 -6.4707,8.169922 -1.56667,1.66 -3.37636,3.020078 -5.42969,4.080078 -11.03,5.67 -21.19078,10.568907 -31.05078,15.878911 -13.19,7.1 -19.87961,10.6407 -33.34961,17.9707 -5.92,3.22 -11.84906,6.29209 -17.78907,9.21875 a 1.5,1.49 48 0 1 -1.46093,-0.0781 l -13.5,-8.54102 c -0.59334,-0.0533 -1.09334,0.18427 -1.5,0.71094 -0.24,0.30667 -0.20396,0.57216 0.10937,0.79883 1.17,0.85 1.55102,1.96968 2.79102,2.92969 4.43333,3.43333 9.23682,6.89109 14.41015,10.37109 -0.56,-0.72 -0.18752,-1.43086 1.11915,-2.13086 l 53.25976,-28.48047 c 9.93333,-5.313334 19.39109,-9.84318 28.37109,-13.589847 2.4,-2.886667 5.07597,-6.142865 8.0293,-9.769531 2.07333,-2.533334 4.778,-7.777136 8.11133,-15.730469 z M 176.90836,69.8721 c -0.19594,-0.0059 -0.48664,0.119453 -0.86914,0.376953 -3.34,2.26 -5.88534,4.191016 -7.63867,5.791015 -5.32667,4.880001 -10.35032,9.266823 -15.07032,13.160157 -0.3,0.246666 -0.25776,0.342396 0.12891,0.289062 l 5.28125,-0.75 17.44922,-15.429687 c 0.4,-0.733334 0.70659,-1.50388 0.91992,-2.310547 0.19167,-0.741667 0.12539,-1.117057 -0.20117,-1.126953 z m 130.91211,0.728515 c -0.34,-0.01333 -0.64349,0.08549 -0.91016,0.298829 -0.58,0.48 -1.05015,1.063333 -1.41015,1.75 -4.37334,8.386666 -9.17373,17.826979 -14.40039,28.320316 -0.39334,0.78 -0.69063,1.51255 -0.89063,2.19922 a 0.43,0.43 0 0 0 0.60156,0.5 l 3.45899,-1.66016 12.2207,-28.218752 c 0.27333,-0.64 0.75589,-0.931093 1.44922,-0.871093 l 33.45117,3.111328 c 0.7,-0.44 1.17326,-0.900859 1.41992,-1.380859 0.28,-0.553334 0.11334,-0.869219 -0.5,-0.949219 -11.59333,-1.513334 -23.09023,-2.546276 -34.49023,-3.09961 z m 157.21875,5.888672 c -0.30667,2.546667 -1.08341,4.88 -2.33008,7 a 1.71,1.74 13.3 0 1 -1.34961,0.84961 c -9.94,0.84 -20.16635,1.767916 -30.67969,2.78125 -2.9,0.28 -6.64906,5.170156 -7.28906,6.660156 -1.65333,3.846663 -3.39094,7.680007 -5.21094,11.500007 a 0.44,0.43 22.1 0 0 0.25977,0.59961 c 0.73333,0.24 1.61396,0.31403 2.64062,0.2207 l 7.33985,-13.750005 c 0.24666,-0.46 0.63039,-0.72125 1.15039,-0.78125 l 34.32031,-4.070312 a 1.41,1.42 4.7 0 0 1.18945,-1.019531 l 2.66016,-9.320313 c 0.1,-0.353333 -0.0337,-0.535495 -0.40039,-0.548828 z m 66.78125,16.550781 c 0.87333,0.8 1.83534,1.487214 2.88867,2.060547 8.11,4.420001 16.94094,10.129535 24.46094,14.269535 8.88666,4.88667 20.80643,11.38977 35.75976,19.50977 1.16667,0.63333 5.61938,3.21666 13.35938,7.75 4.45333,2.6 9.03357,4.98682 13.74023,7.16015 -0.0467,-0.47333 -0.22573,-0.80357 -0.53906,-0.99023 -9.59333,-5.72 -20.87008,-12.10063 -33.83008,-19.14063 -5.54,-3.00666 -11.33109,-6.31015 -17.37109,-9.91015 -10.59333,-6.31334 -22.37318,-12.93581 -35.33984,-19.869148 -0.97334,-0.52 -2.01558,-0.799844 -3.12891,-0.839844 z m -31.44141,1.609376 c -0.21375,-0.01125 -0.34367,0.125156 -0.38867,0.410156 -0.29,1.989996 -1.05031,4.719846 -1.82031,6.58985 -2.06,5.06666 -4.14953,10.12325 -6.26953,15.16992 -0.65334,1.55333 -1.0731,3.30643 -1.25977,5.25977 -0.18,1.80666 -0.31682,3.6214 -0.41016,5.4414 l 10.86915,-28.101564 a 0.66,0.66 0 0 1 0.91015,-0.34961 c 21.18667,10.653334 39.32969,19.670784 54.42969,27.050784 32.08667,15.69333 66.10721,30.33016 102.06055,43.91016 0.13333,0.0533 0.24031,0.0153 0.32031,-0.11133 l 0.01,-0.01 c 0.08,-0.12666 0.0358,-0.23674 -0.13085,-0.33007 l -9.97852,-5.83985 c -1.4,-1.04 -3.53992,-2.20047 -6.41992,-3.48047 -6.68667,-2.97333 -12.96031,-5.62875 -18.82032,-7.96875 -9.86666,-3.93333 -16.04148,-6.44458 -18.52148,-7.53125 -32.54,-14.24 -64.32867,-30.54929 -96.13867,-46.529294 -1.28667,-0.64667 -4.02117,-1.819536 -8.20117,-3.519536 -0.09,-0.03667 -0.16899,-0.0568 -0.24024,-0.06055 z m -301.89844,1.291015 -7.03124,0.830077 a 2.3,2.29 8.5 0 0 -1.8086,1.33008 c -1.86,4.173334 -3.51737,9.111694 -4.9707,14.818364 -1.32,5.16 -3.40953,9.28133 -6.26953,12.36133 -2.88,3.1 -7.46024,6.40039 -13.74024,9.90039 -0.6,0.32666 -0.92713,1.34836 -0.98047,3.06836 l 13.1211,-8.50977 c 3.56,-3.43333 6.19177,-7.79651 7.89844,-13.08984 1.8,-5.6 3.57674,-11.08255 5.33007,-16.44922 a 1.07,1.06 6.9 0 1 0.94141,-0.730474 l 6.0293,-0.41016 1.83007,-2.519528 c 0.34,-0.466666 0.22373,-0.666276 -0.34961,-0.599609 z M 66.95914,96.58499 c -0.0703,0.0059 -0.17586,0.06805 -0.31836,0.185546 l -46.32031,38.068364 5.78906,0.2207 c 0.34,0.0133 0.64349,-0.0793 0.91016,-0.27929 0.88,-0.65334 1.72458,-1.34675 2.53125,-2.08008 7.69333,-6.98667 17.01232,-14.93008 27.95898,-23.83008 2.50667,-2.03333 5.15589,-4.15776 7.94922,-6.37109 l 1.55078,-5.478524 c 0.0833,-0.3 0.0664,-0.445441 -0.0508,-0.435546 z m 105.73828,0.529296 a 0.37,0.37 0 0 0 -0.26758,0.0254 c -1.69,0.88 -3.42039,0.56945 -4.90039,0.68946 -7.96666,0.67333 -16.7589,1.5838 -26.3789,2.730464 a 1.36,1.36 0 0 0 -0.83985,0.42969 c -3.93,4.14 -7.51062,7.38 -11.39062,11.5 -7.16667,7.62667 -14.62753,15.44141 -22.38086,23.44141 -2.12,2.19 -5.43985,5.68984 -8.58984,6.83984 -2.30001,0.84 -4.74342,1.16208 -7.33008,0.96875 3.4,1.17 11.49156,2.40133 14.35156,-0.63867 10.65333,-11.32 18.62659,-19.76341 23.91992,-25.33008 4.00667,-4.20667 8.11984,-8.23341 12.33984,-12.08008 1.16001,-1.06 2.48852,-1.19984 3.97852,-1.33984 8.93333,-0.83333 17.86745,-1.62753 26.80078,-2.38086 l 0.94922,-4.429694 a 0.37,0.37 0 0 0 -0.26172,-0.42578 z M 470.84,100.1807 c -0.38667,2.15333 -0.80023,4.30565 -1.24023,6.45898 -0.44,2.15 -1.43977,3.15961 -3.50977,3.59961 -21.56667,4.60667 -43.4031,9.80628 -65.50977,15.59961 a 0.34,0.35 2.4 0 1 -0.41015,-0.44922 c 0.0867,-0.26 0.096,-0.46271 0.0293,-0.60937 a 1.15,0.09 68.1 0 0 -0.39844,-0.81055 c -0.94,-1.02 -1.29698,-1.91302 -1.07032,-2.67969 0.72001,-2.45333 0.94946,-4.79286 0.68946,-7.01953 -0.04,-0.29333 -8.6e-4,-0.58133 0.11914,-0.86133 l 0.36133,-0.85937 c 0.4,-0.96 0.1089,-1.27279 -0.8711,-0.93946 l -54.65039,18.35938 a 2.99,2.99 0 0 1 -3.19922,-0.86914 l -4.69922,-5.40039 -1.88085,3.76953 c -0.16,0.31333 -0.13016,0.60753 0.0898,0.88086 l 5.05078,6.29883 a 1.33,1.35 63.1 0 0 1.41016,0.45117 c 0.83333,-0.23333 2.38682,-0.73023 4.66015,-1.49024 16.14667,-5.4 33.44511,-11.62015 51.89844,-18.66015 a 0.15,0.15 0 0 1 0.21094,0.13867 l -0.10938,9.27148 c -0.007,0.43334 0.1755,0.75542 0.54883,0.96876 l 1.04102,0.60156 c 0.22666,0.13333 0.29255,0.31859 0.19922,0.55859 l -0.43946,1.19141 a 0.74,0.74 0 0 0 0.76953,1 c 2.08667,-0.20667 4.18435,-0.56055 6.29102,-1.06055 28.32667,-6.71333 48.89255,-11.56411 61.69922,-14.55078 a 2.14,2.13 3.6 0 0 1.51953,-1.33008 l 3.71094,-9.94922 c 0.11333,-0.3 0.0722,-0.57674 -0.1211,-0.83008 -0.38666,-0.5 -1.11612,-0.75929 -2.18945,-0.77929 z m -353.04297,1.4375 c -0.0779,-0.007 -0.19122,-0.003 -0.33789,0.0117 l -10.58008,1.08007 a 4.02,4.01 18 0 0 -2.55859,1.29883 c -8.62,9.48 -18.33396,20.29784 -29.14063,32.45117 -1.67,1.89 -1.82921,3.81055 -5.19922,2.56055 -3.51333,-1.3 -5.73348,-2.25466 -6.66015,-2.86133 -0.36,-0.24 -0.50302,-0.57023 -0.42969,-0.99023 l 0.5,-2.94922 c 0.15333,-0.91333 -0.11721,-1.06255 -0.81055,-0.44922 -1.06,0.94 -2.13093,2.25899 -3.21093,3.95899 1.06,0.47333 3.17007,1.77682 6.33008,3.91015 1.58,1.06 4.53466,1.97357 8.86132,2.74024 0.34,0.06 0.6024,-0.0532 0.78907,-0.33985 1.20666,-1.83333 2.59349,-3.63682 4.16015,-5.41015 9.32667,-10.53334 18.21659,-20.58993 26.66992,-30.16993 0.22,-0.24666 0.49365,-0.38968 0.82032,-0.42968 l 6.11914,-0.65039 c 0.7,-0.36667 1.31317,-0.92636 1.83984,-1.67969 0.2,-0.28667 0.45,-0.51302 0.75,-0.67969 l 1.86133,-1.05078 c 0.385,-0.215 0.46031,-0.33156 0.22656,-0.35156 z m 360.13281,4.60156 -11.59961,28.5 c -0.14,0.34667 -0.0629,0.63581 0.23047,0.86914 5.16667,4.06 10.54844,7.5507 16.14844,10.4707 0.32,0.16 0.54016,0.0736 0.66016,-0.25976 l 0.89062,-2.44922 -15.17969,-9.55078 a 1.22,1.22 0 0 1 -0.30078,-1.81055 c 0.52,-0.63333 0.95722,-1.37208 1.31055,-2.21875 1.73333,-4.17333 4.09651,-10.34815 7.08984,-18.52148 0.52667,-1.44667 0.77667,-3.12263 0.75,-5.0293 z m 129.52735,32.63477 c -0.0117,0.003 -0.0207,0.012 -0.0274,0.0254 l -0.1289,0.26953 c -0.0667,0.12 -0.0368,0.21458 0.0898,0.28125 l 13.63867,6.57812 c 0.0533,-0.3 0.16032,-0.5182 0.32032,-0.6582 l -13.84961,-6.49024 c -0.0167,-0.007 -0.0313,-0.009 -0.043,-0.006 z"
     style="display:inline;fill:#00ffff" />
</svg>
