<?xml version="1.0" encoding="UTF-8" standalone="no"?>
<!-- Created with Inkscape (http://www.inkscape.org/) -->

<svg
   width="210mm"
   height="297mm"
   viewBox="0 0 210 297"
   version="1.1"
   id="svg1"
   inkscape:version="1.4 (86a8ad7, 2024-10-11)"
   sodipodi:docname="wandler_orig_v3.svg"
   xmlns:inkscape="http://www.inkscape.org/namespaces/inkscape"
   xmlns:sodipodi="http://sodipodi.sourceforge.net/DTD/sodipodi-0.dtd"
   xmlns="http://www.w3.org/2000/svg"
   xmlns:svg="http://www.w3.org/2000/svg">
  <sodipodi:namedview
     id="namedview1"
     pagecolor="#ffffff"
     bordercolor="#000000"
     borderopacity="0.25"
     inkscape:showpageshadow="2"
     inkscape:pageopacity="0.0"
     inkscape:pagecheckerboard="0"
     inkscape:deskcolor="#d1d1d1"
     inkscape:document-units="mm"
     showguides="true"
     inkscape:zoom="3.0614509"
     inkscape:cx="308.51384"
     inkscape:cy="415.97923"
     inkscape:window-width="2560"
     inkscape:window-height="1417"
     inkscape:window-x="-8"
     inkscape:window-y="-8"
     inkscape:window-maximized="1"
     inkscape:current-layer="layer1">
    <sodipodi:guide
       position="107.07953,189.14265"
       orientation="0,-1"
       id="guide51"
       inkscape:locked="false" />
    <sodipodi:guide
       position="114.07989,180.75951"
       orientation="0,-1"
       id="guide52"
       inkscape:locked="false" />
    <sodipodi:guide
       position="110.8822,199.3407"
       orientation="0,-1"
       id="guide53"
       inkscape:locked="false" />
    <sodipodi:guide
       position="128.25345,179.63599"
       orientation="0,-1"
       id="guide54"
       inkscape:locked="false" />
  </sodipodi:namedview>
  <defs
     id="defs1" />
  <g
     inkscape:label="Layer 1"
     inkscape:groupmode="layer"
     id="layer1">
    <path
       id="path51"
       style="font-size:22.5778px;font-family:Cyberpunk;-inkscape-font-specification:Cyberpunk;stroke-width:0.264583"
       d="m 106.85143,107.85506 -0.2713,0.60978 c -0.58702,1.35467 -1.42206,3.16818 -2.50579,5.44101 -0.39136,0.85796 -0.58705,1.40765 -0.58705,1.64848 0,0.13547 0.15778,0.39109 0.47388,0.76739 0.31608,0.39135 0.51178,0.58705 0.58704,0.58705 h 0.0227 l 0.54157,-1.06092 c 0.37629,-0.70743 0.74514,-1.40774 1.10639,-2.10013 0.37627,-0.70744 0.57965,-1.06092 0.60978,-1.06092 0.10536,0 0.41376,0.13525 0.92553,0.40618 0.58702,0.28599 1.22687,0.56468 1.91926,0.83561 0.70744,0.27093 1.13622,0.40618 1.28674,0.40618 0.18064,0 0.29387,0.0451 0.339,0.13539 0.0452,0.12041 0.12763,0.12041 0.24805,0 0.0903,-0.0903 0.4817,-0.13539 1.17408,-0.13539 0.63218,0 0.94827,0.0153 0.94827,0.0455 0,0.0903 -0.49641,0.16563 -1.48983,0.22583 -0.16558,0 -0.24857,0.0148 -0.24857,0.045 0,0.0903 0.39908,0.25578 1.19683,0.49661 l 1.01596,0.29352 1.62522,-1.62523 -2.41587,-0.94826 c -1.5955,-0.61714 -2.39314,-0.9486 -2.39314,-0.99374 0,-0.0602 1.00103,-0.42136 3.00292,-1.08365 l 3.00292,-1.0387 c 0,-0.0452 -0.13576,-0.27108 -0.4067,-0.67748 -0.28598,-0.42145 -0.5493,-0.632 -0.79013,-0.632 -1.14395,0 -3.78532,-0.16547 -7.92458,-0.49661 z m 2.52853,1.55804 h 0.67747 c 1.32457,0 2.09966,0.0374 2.32544,0.11266 0.0151,0 0.0222,0.008 0.0222,0.0227 0,0.0903 -0.64701,0.31624 -1.94148,0.67748 -1.27941,0.3462 -2.09242,0.51935 -2.43861,0.51935 h -0.045 c -0.15055,-0.0301 -0.24839,-0.0603 -0.29352,-0.0904 -0.0451,-0.0452 -0.0677,-0.13532 -0.0677,-0.27079 v -0.13591 c 0.0151,-0.3763 0.11291,-0.60939 0.29353,-0.6997 0.18062,-0.0903 0.66986,-0.13539 1.46761,-0.13539 z" />
    <path
       style="font-size:22.5778px;font-family:Cyberpunk;-inkscape-font-specification:Cyberpunk;stroke-width:0.264583"
       d="m 102.07207,114.21521 q -0.0677,0 -4.85424,1.03858 -4.76392,1.03858 -4.7865,1.03858 -0.0903,0 -0.90311,-0.72249 -0.8128,-0.72249 -0.8128,-0.8128 0,-0.13547 1.24178,-1.91911 l 1.26436,-1.78365 H 93.786 q 0.0677,0 0.31609,0 0.27094,-0.0226 0.45156,-0.0226 0.15804,0 0.49671,0.0226 0.36124,0 0.54187,0 h 0.54186 q 0.56445,0 0.56445,-0.0903 0,-0.0452 -0.0677,-0.11289 -0.18063,-0.18062 -0.97085,-0.18062 h -0.56444 -0.40641 q -1.03857,0 -1.03857,-0.0677 0,-0.18063 1.39982,-2.1449 l 1.49013,-2.09973 2.82223,0.0903 q 3.40926,0.0903 4.92197,0.15804 l 2.09974,0.0903 q -0.42898,0.58702 -0.88054,1.33209 h -2.07716 q -1.4224,0 -1.80622,0.0451 -0.36126,0.0452 -0.5193,0.22578 -0.18062,0.18062 -0.47413,0.24836 -0.27094,0.0451 -1.19663,0.0451 h -1.4224 l -0.2032,0.4064 -0.22578,0.4064 h 2.98027 1.03859 q 1.08374,0 1.44498,0.0452 0.36125,0.0452 0.36125,0.2032 0,0.0677 -0.36125,0.67733 -0.27093,0.45156 -0.74507,0.56445 -0.45155,0.0903 -3.68019,0.49671 -2.032,0.24835 -2.32551,0.42898 -0.15805,0.0903 -0.42898,0.6096 -0.33867,0.6096 -0.33867,0.76764 0,0.0452 0.11289,0.0452 0.29351,0 4.06401,-0.6096 2.77708,-0.45156 3.02543,-0.45156 0.15805,0 0.18062,0.0452 0.0452,0.0452 0.0452,0.13546 0,0.18063 -0.4064,1.01601 -0.38382,0.83537 -0.47413,0.83537 z"
       id="path48" />
    <path
       style="font-size:22.5778px;font-family:Cyberpunk;-inkscape-font-specification:Cyberpunk;stroke-width:0.264583"
       d="m 86.147612,106.58449 c 0,-0.0602 0.04516,-0.0903 0.13547,-0.0903 0.09031,0 0.13546,0.0753 0.13546,0.22578 0,0.10537 0.09784,0.15805 0.29352,0.15805 0.04513,0 0.263383,-0.0151 0.65475,-0.0452 0.15052,-0.0151 0.331143,-0.0226 0.54187,-0.0226 0.346193,0 0.51929,0.0753 0.51929,0.22578 0,0.0301 -0.0301,0.1355 -0.0903,0.31609 -0.270933,0.64723 -0.790223,2.03953 -1.55787,4.17689 -0.752593,2.13737 -1.12889,3.26626 -1.12889,3.38667 0,0.0903 0.677333,0.1731 2.032,0.24836 1.610553,0.0753 0.953072,0.2041 1.449779,0.26431 0.511767,0.0753 1.584671,0.0814 1.629824,0.20184 0.03215,0.0858 -2.204846,0.78346 -4.231073,0.70786 -1.971793,-0.0753 -3.040473,-0.13547 -3.20604,-0.18063 -0.03013,-0.0301 -0.0452,-0.0678 -0.0452,-0.11289 0,-0.13547 0.05268,-0.39135 0.15804,-0.76764 0.12042,-0.36125 0.23331,-0.69991 0.33867,-1.016 0.120413,-0.30104 0.18062,-0.45909 0.18062,-0.47414 0,-0.0151 0.01507,-0.0226 0.0452,-0.0226 h 0.11289 c 0.0602,0.0151 0.11288,0.0301 0.15804,0.0452 0.03013,0.0151 0.07529,0.0226 0.13547,0.0226 0.135467,0 0.29351,-0.2032 0.47413,-0.6096 0.240833,-0.54187 0.549397,-1.57292 0.92569,-3.09316 0.346193,-1.38477 0.51929,-2.24273 0.51929,-2.57387 0,-0.0903 -0.01503,-0.21073 -0.0451,-0.36124 -0.09031,-0.36125 -0.13547,-0.56445 -0.13547,-0.6096 z"
       id="path40"
       sodipodi:nodetypes="cssscssccsccsccsccssccsscsccc" />
    <path
       id="path38"
       style="font-size:22.5778px;font-family:Cyberpunk;-inkscape-font-specification:Cyberpunk;stroke-width:0.264583"
       d="m 86.083817,99.661347 c -0.0984,0.0376 -0.207328,0.32184 -0.32649,0.850993 -0.203645,0.77126 -0.417581,1.36945 -0.641518,1.79393 -0.301894,0.59957 -0.677904,1.61422 -1.128392,3.0447 l -0.740902,2.29206 -5.311672,2.03895 c -0.27819,0.70333 -0.506389,1.34681 -0.68508,1.93133 l 0.480023,2.25845 c 0.214361,1.06245 0.402145,1.80467 0.563971,2.22625 0.01079,0.0281 0.03598,0.0507 0.07484,0.0681 0.05836,0.026 0.144821,0.0411 0.259347,0.0455 0.114512,0.004 0.212098,0.007 0.293162,0.008 0.100521,0.01 0.238961,0.0131 0.415131,0.0102 0.190238,-0.007 0.342532,-0.011 0.457087,-0.006 l 1.379249,0.003 0.779128,-1.12106 c 0.519209,-0.74747 0.986812,-1.73361 1.403663,-2.95774 0.76658,-2.24511 1.414738,-4.10611 1.944142,-5.58302 l 1.31893,-3.74666 -0.348428,-0.27754 c -0.138249,-0.10812 -0.22348,-0.20438 -0.255839,-0.28868 -0.05394,-0.14054 -0.02893,-0.537 0.07528,-1.18967 0.09664,-0.71424 0.109965,-1.162733 0.03983,-1.345413 -0.01623,-0.0421 -0.03147,-0.0606 -0.0455,-0.0552 z m -6.28529,11.094803 0.315957,-0.12145 c 0.586925,-0.19303 1.070937,-0.33882 1.452473,-0.43688 l 0.783251,-0.22772 -0.494863,0.91564 c -0.307278,0.58552 -0.44213,0.92756 -0.40437,1.02591 0.02153,0.0562 0.109872,0.0546 0.26443,-0.005 0.168608,-0.0648 0.268877,-0.0554 0.301325,0.0293 0.03775,0.0984 -0.0823,0.18446 -0.36006,0.25888 l -0.0631,0.0242 c -0.407519,0.15644 -0.794745,0.66008 -1.161635,1.51036 -0.216451,0.48616 -0.359508,0.74246 -0.429769,0.76941 -0.04212,0.0164 -0.0771,-0.0106 -0.104068,-0.0807 -0.04315,-0.11242 -0.08934,-0.40142 -0.13875,-0.86613 -0.04609,-0.49826 -0.07744,-0.7683 -0.09353,-0.81045 -0.01078,-0.028 -0.100327,-0.01 -0.268861,0.0553 -0.168613,0.0648 -0.269152,0.0544 -0.301505,-0.0299 -0.03242,-0.0844 0.05671,-0.16677 0.267495,-0.24767 0.210813,-0.0808 0.290844,-0.20826 0.240185,-0.38224 -0.04749,-0.20754 -0.07228,-0.33518 -0.07439,-0.3827 -0.04189,-0.40314 -0.05512,-0.64773 -0.03998,-0.73419 0.02386,-0.10589 0.127257,-0.19387 0.309951,-0.26396 z" />
    <path
       id="path36"
       style="font-size:22.5778px;font-family:Cyberpunk;-inkscape-font-specification:Cyberpunk;stroke-width:0.264583"
       d="m 70.838568,106.83098 c -0.0301,0 -0.293422,0.44416 -0.790133,1.33222 -0.120415,0.21073 -0.376564,0.66206 -0.767912,1.35444 -0.376296,0.69239 -0.646783,1.18932 -0.812353,1.49035 l -0.835608,1.51257 0.49661,0.0904 c 0.361246,0.0602 0.572313,0.0679 0.63252,0.0227 0.06021,-0.0301 0.08992,-0.008 0.08992,0.0677 0,0.10536 -0.240777,0.15813 -0.722437,0.15813 -0.361244,0 -0.587166,0.0226 -0.677478,0.0677 -0.09031,0.0452 -0.188158,0.1804 -0.293522,0.40618 l -0.225309,0.49661 h 0.383439 c 0.135465,0.0151 0.210773,0.0227 0.225826,0.0227 l -0.270784,0.0904 -0.04496,0.0222 h -0.02274 c -0.210726,0.0602 -0.376196,0.15089 -0.496611,0.2713 -0.105363,0.12042 -0.255977,0.36119 -0.451652,0.72244 -0.255881,0.43651 -0.383956,0.78282 -0.383956,1.0387 0,0.13546 0.120388,0.20309 0.361218,0.20309 0.285986,0 0.79008,-0.083 1.51257,-0.24857 l 0.745174,-0.15813 0.857828,-1.37718 c 0.571971,-0.90311 0.858346,-1.39235 0.858346,-1.46761 0,-0.0602 -0.203382,-0.0899 -0.609782,-0.0899 -0.165571,0 -0.300813,-0.008 -0.406177,-0.0227 -0.120417,-0.0301 -0.165499,-0.068 -0.135392,-0.11317 0.04516,-0.0903 0.684493,-0.13539 1.918746,-0.13539 0.4064,0 0.722485,-0.007 0.948263,-0.0222 0.24083,0 0.42884,-0.008 0.564306,-0.0227 0.13547,-0.015 0.226148,-0.0376 0.271301,-0.0677 0.04515,-0.0301 0.0677,-0.068 0.0677,-0.11317 0,-0.12041 -0.399078,-1.55791 -1.196827,-4.3124 -0.06021,-0.15049 -0.203136,-0.24065 -0.428914,-0.27078 -0.150521,-0.0301 -0.248369,-0.0604 -0.293522,-0.0904 -0.04515,-0.0301 -0.0677,-0.0977 -0.0677,-0.20309 v -0.0904 c 0.01505,-0.0452 0.02274,-0.0826 0.02274,-0.11265 0.0301,-0.30104 0.02242,-0.45166 -0.02274,-0.45166 z m 4.92218,0.83561 -1.354956,2.41588 c -0.842904,1.47508 -1.264006,2.29526 -1.264006,2.46083 0.0301,0.0753 0.150493,0.0148 0.361219,-0.18087 0.150517,-0.13548 0.232993,-0.19542 0.248046,-0.18035 0.01505,0 -0.02234,0.0753 -0.112654,0.22583 -0.180622,0.30103 -0.857871,0.45165 -2.031917,0.45165 h -0.880567 l 0.0677,0.45113 c 0.09031,0.49672 0.150244,0.87325 0.180351,1.12913 0.04516,0.4064 0.188084,0.82802 0.428914,1.26452 0.180623,0.28601 0.316383,0.45148 0.406694,0.49662 0.09031,0.0602 0.331088,0.0904 0.722436,0.0904 0.526816,0 0.850586,-0.0605 0.971001,-0.18087 0.150518,-0.18063 0.948156,-1.58789 2.393135,-4.22196 1.44498,-2.64913 2.16731,-4.02668 2.16731,-4.13205 0,-0.0602 -0.391391,-0.0899 -1.174089,-0.0899 z" />
    <path
       id="path33"
       style="font-size:22.5778px;font-family:Cyberpunk;-inkscape-font-specification:Cyberpunk;stroke-width:0.264583"
       d="m 59.457426,108.66531 -0.81287,1.15187 c -0.511581,0.75234 -0.767395,1.17371 -0.767395,1.264 0,0.0602 0.18801,0.0602 0.564307,0 l 0.31626,-0.0227 c 0.150521,0 0.210457,0.0379 0.18035,0.11317 -0.06021,0.10537 -0.308153,0.18784 -0.744657,0.24804 l -0.677478,0.0677 -0.993738,1.42265 c -0.617127,0.91817 -0.925525,1.46018 -0.925525,1.62574 0,0.12042 -0.0374,0.18035 -0.112654,0.18035 -0.135467,0 -0.436696,0.33862 -0.903304,1.01596 0.09428,0.34217 3.032757,0.84791 3.47679,0.15814 0.602075,-1.12891 0.903304,-1.716 0.903304,-1.76113 -0.01505,-0.0451 -0.06013,-0.0825 -0.135392,-0.11265 -0.165572,0.0151 -0.278274,0.10521 -0.338481,0.27078 -0.0301,0.16557 -0.368728,0.28596 -1.015959,0.36122 -0.16557,0.0151 -0.376637,0.0227 -0.632519,0.0227 -0.451556,0 -0.677478,-0.0451 -0.677478,-0.1354 0,-0.0301 0.03023,-0.068 0.09043,-0.11317 0.105363,-0.0753 0.443988,-0.11265 1.015958,-0.11265 0.361245,0 0.594853,-0.0154 0.700216,-0.0455 0.120415,-0.0452 0.218263,-0.14249 0.293522,-0.293 0.07526,-0.1505 0.195648,-0.24117 0.361218,-0.2713 0.165571,-0.0451 0.571817,-0.0825 1.219047,-0.11266 0.903112,-0.0451 1.85905,-0.12815 2.867526,-0.24856 0.64723,-0.0753 1.113929,-0.11266 1.399914,-0.11266 0.120415,0 0.180351,0.0148 0.180351,0.045 0,0.10536 -0.09785,0.60229 -0.293522,1.49035 -0.180623,0.87301 -0.270785,1.34687 -0.270785,1.42213 0,0.0602 0.218237,0.0602 0.654741,0 l 0.632002,-0.0899 0.700216,-2.16783 c 0.481659,-1.46003 0.827454,-2.27253 1.03818,-2.43809 0.195675,-0.16558 0.323749,-0.5042 0.383955,-1.01596 0.04516,-0.39135 0.105609,-0.76021 0.180868,-1.10639 l 0.0677,-0.38396 -1.12913,-0.0904 c -0.677334,-0.0452 -2.001606,-0.0979 -3.973401,-0.15813 z m 5.509225,1.58078 c 0.105363,0 0.15813,0.0148 0.15813,0.045 l -0.135392,0.72244 -0.15813,0.72243 -1.44539,-0.0904 c -1.053631,-0.0602 -1.775961,-0.0899 -2.16731,-0.0899 h -0.745174 l 0.225826,-0.40669 0.203089,-0.40618 h 1.445389 c 0.948268,0 1.460048,-0.0676 1.535307,-0.20309 0.0301,-0.0602 0.173033,-0.12066 0.428915,-0.18086 0.255882,-0.0753 0.474118,-0.11266 0.65474,-0.11266 z"
       sodipodi:nodetypes="ccsccccccssccccccsscscscccsscscccccccccccccccscccscccc" />
    <path
       style="font-size:22.5778px;font-family:Cyberpunk;-inkscape-font-specification:Cyberpunk;stroke-width:0.264583"
       d="m 60.803574,99.601584 q 0.722489,-1.941691 0.835378,-1.941691 0.428978,0 0.745068,1.219202 0.158044,0.541867 0.158044,0.790223 0,0.248355 -0.248356,0.677332 -0.2032,0.38382 -0.361244,0.49671 -0.135467,0.11289 -0.428979,0.13547 -0.338667,0.0226 -0.519289,0.29351 -0.158045,0.24836 -0.857957,1.87396 -1.783646,4.08658 -2.86738,5.91538 -0.06773,0.11289 -1.603024,3.18347 -1.625602,3.25121 -2.144891,4.1769 -0.51929,0.92569 -0.72249,0.92569 -0.06773,0 -0.09031,-0.0226 -0.270934,-0.13547 -0.112889,-0.47414 0.158045,-0.36124 0.09031,-0.42897 -0.02258,-0.0452 -0.92569,-0.13547 -0.857956,-0.11289 -0.970845,-0.38382 -0.92569,-6.27663 -0.970845,-6.27663 -0.04516,0 -0.903112,1.78364 -0.857957,1.76107 -1.761069,3.58987 -0.880534,1.85138 -1.038579,1.98685 -0.112889,0.11289 -0.180622,0.13547 -0.04516,0.0226 -0.09031,-0.0226 -0.02258,-0.0452 -0.04516,-0.15804 -0.06773,-0.27094 -1.12889,-0.45156 -0.745067,-0.11289 -0.903112,-0.2032 -0.158045,-0.0677 -0.225778,-0.38382 -0.06773,-0.38383 -0.767645,-0.8128 -0.654757,-0.4064 -0.654757,-0.49672 0,-0.0677 0.745068,-4.49298 0.632178,-3.72534 0.632178,-4.35751 0,-0.2032 -0.09031,-0.47414 -0.112889,-0.27093 -0.112889,-0.38382 0,-0.24836 0.474134,-1.49014 0.361245,-0.94826 0.541867,-1.2192 0.180623,-0.27093 0.451556,-0.27093 0.158045,0 0.248356,0.0226 0.225778,0.0452 0.270934,0.2032 0.06773,0.13546 0.293511,1.44498 0.180622,0.97084 0.180622,1.73849 0,0.49671 -0.112889,1.4224 -0.112889,0.90311 -0.158044,1.51271 -0.09031,1.26436 -0.135467,1.37725 -0.135467,0.22578 -0.135467,3.11573 0,0.58703 0.02258,0.58703 0.06773,0 0.587023,-1.12889 1.33209,-2.86738 1.444979,-3.20605 0.04516,-0.18062 1.106312,-2.50614 1.083735,-2.32551 1.151468,-2.39324 h 0.02258 q 0.248356,0 1.106312,0.67733 0.699912,0.54187 0.880534,0.76765 0.180623,0.2032 0.225778,0.6096 0.02258,0.11289 0.02258,0.29351 0,0.4064 -0.112889,0.4064 -0.06773,0 -0.135467,-0.18062 -0.09031,-0.24836 -0.338667,-0.2032 -0.112889,0.0452 -0.135466,0.13546 0,0.22578 0.180622,0.45156 0.180622,0.22578 0.361245,0.22578 0.2032,0 0.293511,0.2032 0.09031,0.2032 0.180623,0.94826 l 0.06773,0.49672 -2.190047,-0.0903 q -1.444979,-0.0451 -1.53529,-0.0451 -0.654756,0 -0.654756,0.18062 0,0.15805 0.225778,0.2032 0.248355,0.0226 1.174045,0.0452 2.799648,0.0226 2.935114,0.15804 0.112889,0.11289 0.31609,1.78365 0.2032,1.64818 0.361244,1.64818 0.248356,0 3.409248,-6.63788 l 1.286935,-2.68675 q 0.338667,-0.0677 0.993423,-0.22578 0.677334,-0.18062 1.016001,-0.27094 l 0.316089,-0.69991 q 0.09031,-0.22578 1.016002,-2.686756 z"
       id="path29" />
    <path
       style="font-size:22.5778px;font-family:Cyberpunk;-inkscape-font-specification:Cyberpunk;stroke-width:0.264583"
       d="m 56.129969,109.06168 q 0,-0.13546 -0.541867,-0.13546 -0.541868,0 -0.541868,0.15804 0,0.0677 0.112889,0.0677 0.135467,0 0.270934,0 0.135467,0 0.180622,0.0677 0.09031,0.15804 0.293512,0.0903 0.225778,-0.0677 0.225778,-0.24836 z"
       id="path27" />
    <path
       style="font-size:22.5778px;font-family:Cyberpunk;-inkscape-font-specification:Cyberpunk;stroke-width:0.264583"
       d="m 48.340627,110.25831 q 0.09031,0.0903 0.158045,0 0.09031,-0.0903 -0.06773,-0.0903 -0.180623,0 -0.09031,0.0903 z"
       id="path26" />
    <path
       style="font-size:22.5778px;font-family:Cyberpunk;-inkscape-font-specification:Cyberpunk;stroke-width:0.264583"
       d="m 48.205161,110.55182 q 0.06773,0.0677 0.158044,0.0226 0.06773,-0.0903 -0.06773,-0.13547 -0.06773,0 -0.112889,0.0452 -0.02258,0.0452 0.02258,0.0677 z"
       id="text1" />
    <path
       style="font-size:22.5778px;font-family:Cyberpunk;-inkscape-font-specification:Cyberpunk;stroke-width:0.264583"
       d="m 46.285654,135.7822 q 0.06773,0.0677 0.158044,0.0226 0.06773,-0.0903 -0.06773,-0.13547 -0.06773,0 -0.112889,0.0452 -0.02258,0.0452 0.02258,0.0677 z m 0.135466,-0.29351 q 0.09031,0.0903 0.158045,0 0.09031,-0.0903 -0.06773,-0.0903 -0.180623,0 -0.09031,0.0903 z m 7.789342,-1.19663 q 0,-0.13546 -0.541867,-0.13546 -0.541868,0 -0.541868,0.15804 0,0.0677 0.112889,0.0677 0.135467,0 0.270934,0 0.135467,0 0.180622,0.0677 0.09031,0.15804 0.293512,0.0903 0.225778,-0.0677 0.225778,-0.24836 z m -5.463828,-2.39324 q 0.270934,-0.2032 0.09031,-0.27094 -0.09031,-0.0226 -0.293511,0.0226 -0.248356,0.0677 -0.248356,0.31609 0,0.36124 0.361245,0.42898 0.180622,0.0452 0.270933,0.0226 0.09031,-0.0226 0.04516,-0.0903 -0.04516,-0.0903 -0.225778,-0.15804 -0.135467,-0.0452 -0.158045,-0.0677 -0.02258,-0.0226 0,-0.0677 0.02258,-0.0451 0.158045,-0.13546 z m 10.137433,-7.06686 q 0.722489,-1.94169 0.835378,-1.94169 0.428978,0 0.745068,1.2192 0.158044,0.54187 0.158044,0.79022 0,0.24836 -0.248356,0.67734 -0.2032,0.38382 -0.361244,0.49671 -0.135467,0.11289 -0.428979,0.13547 -0.338667,0.0226 -0.519289,0.29351 -0.158045,0.24836 -0.857957,1.87396 -1.783646,4.08658 -2.86738,5.91538 -0.06773,0.11289 -1.603024,3.18347 -1.625602,3.25121 -2.144891,4.1769 -0.51929,0.92569 -0.72249,0.92569 -0.06773,0 -0.09031,-0.0226 -0.270934,-0.13547 -0.112889,-0.47414 0.158045,-0.36124 0.09031,-0.42897 -0.02258,-0.0452 -0.92569,-0.13547 -0.857956,-0.11289 -0.970845,-0.38382 -0.92569,-6.27663 -0.970845,-6.27663 -0.04516,0 -0.903112,1.78364 -0.857957,1.76107 -1.761069,3.58987 -0.880534,1.85138 -1.038579,1.98685 -0.112889,0.11289 -0.180622,0.13547 -0.04516,0.0226 -0.09031,-0.0226 -0.02258,-0.0452 -0.04516,-0.15804 -0.06773,-0.27094 -1.12889,-0.45156 -0.745067,-0.11289 -0.903112,-0.2032 -0.158045,-0.0677 -0.225778,-0.38382 -0.06773,-0.38383 -0.767645,-0.8128 -0.654757,-0.4064 -0.654757,-0.49672 0,-0.0677 0.745068,-4.49298 0.632178,-3.72534 0.632178,-4.35751 0,-0.2032 -0.09031,-0.47414 -0.112889,-0.27093 -0.112889,-0.38382 0,-0.24836 0.474134,-1.49014 0.361245,-0.94826 0.541867,-1.2192 0.180623,-0.27093 0.451556,-0.27093 0.158045,0 0.248356,0.0226 0.225778,0.0452 0.270934,0.2032 0.06773,0.13546 0.293511,1.44498 0.180622,0.97084 0.180622,1.73849 0,0.49671 -0.112889,1.4224 -0.112889,0.90311 -0.158044,1.51271 -0.09031,1.26436 -0.135467,1.37725 -0.135467,0.22578 -0.135467,3.11573 0,0.58703 0.02258,0.58703 0.06773,0 0.587023,-1.12889 1.33209,-2.86738 1.444979,-3.20605 0.04516,-0.18062 1.106312,-2.50614 1.083735,-2.32551 1.151468,-2.39324 h 0.02258 q 0.248356,0 1.106312,0.67733 0.699912,0.54187 0.880534,0.76765 0.180623,0.2032 0.225778,0.6096 0.02258,0.11289 0.02258,0.29351 0,0.4064 -0.112889,0.4064 -0.06773,0 -0.135467,-0.18062 -0.09031,-0.24836 -0.338667,-0.2032 -0.112889,0.0452 -0.135466,0.13546 0,0.22578 0.180622,0.45156 0.180622,0.22578 0.361245,0.22578 0.2032,0 0.293511,0.2032 0.09031,0.2032 0.180623,0.94826 l 0.06773,0.49672 -2.190047,-0.0903 q -1.444979,-0.0451 -1.53529,-0.0451 -0.654756,0 -0.654756,0.18062 0,0.15805 0.225778,0.2032 0.248355,0.0226 1.174045,0.0452 2.799648,0.0226 2.935114,0.15804 0.112889,0.11289 0.31609,1.78365 0.2032,1.64818 0.361244,1.64818 0.248356,0 3.409248,-6.63788 l 1.286935,-2.68675 q 0.338667,-0.0677 0.993423,-0.22578 0.677334,-0.18062 1.016001,-0.27094 l 0.316089,-0.69991 q 0.09031,-0.22578 1.016002,-2.68676 z m 11.356612,10.02455 q 0,-0.11289 -0.180622,-0.15805 -0.158045,-0.0677 -0.338667,-0.0226 -0.31609,0.11288 -0.112889,0.24835 0.09031,0.0677 0.270933,0.0677 0.361245,0 0.361245,-0.13546 z m -2.212624,-0.22578 q 0,-0.0452 -0.135467,-0.0452 -0.135467,0 -0.135467,0.13547 0,0.18062 0.2032,0 0.06773,-0.0452 0.06773,-0.0903 z m 6.299206,-1.28693 0.135467,-0.72249 q 0,-0.0452 -0.158045,-0.0452 -0.270933,0 -0.654756,0.11289 -0.383823,0.0903 -0.428978,0.18062 -0.112889,0.2032 -1.535291,0.2032 h -1.444979 l -0.2032,0.4064 -0.225778,0.4064 h 0.745067 q 0.587023,0 2.167469,0.0903 l 1.444979,0.0903 z m -6.344362,-1.19663 0.812801,-1.15147 2.822225,0.0677 q 2.957692,0.0903 3.973693,0.15804 l 1.12889,0.0903 -0.06773,0.38383 q -0.112889,0.51928 -0.180622,1.10631 -0.09031,0.76764 -0.383823,1.016 -0.316089,0.24835 -1.038578,2.4384 l -0.699912,2.16747 -0.632179,0.0903 q -0.654756,0.0903 -0.654756,0 0,-0.11289 0.270934,-1.4224 0.293511,-1.33209 0.293511,-1.49013 0,-0.0452 -0.180622,-0.0452 -0.428978,0 -1.399824,0.11289 -1.512713,0.18062 -2.867381,0.24835 -0.970845,0.0452 -1.219201,0.11289 -0.248356,0.0452 -0.361245,0.27094 -0.112889,0.22577 -0.293511,0.29351 -0.158045,0.0451 -0.699912,0.0451 -0.857956,0 -1.016001,0.11289 -0.09031,0.0677 -0.09031,0.11289 0,0.13547 0.677334,0.13547 0.383823,0 0.632178,-0.0226 0.970846,-0.11289 1.016001,-0.36124 0.09031,-0.24836 0.338667,-0.27094 0.112889,0.0452 0.135467,0.11289 0,0.0677 -0.903112,1.76107 l -0.903112,1.67076 -0.767645,0.29351 q -0.564445,0.2032 -0.745068,0.2032 -0.135466,0 -0.225778,-0.0677 -0.02258,-0.0226 -0.180622,-0.15805 -0.158045,-0.11289 -0.361245,-0.27093 -0.180622,-0.13547 -0.338667,-0.27094 l -0.654756,-0.54186 0.699912,-1.016 q 0.699912,-1.01601 0.903112,-1.01601 0.112889,0 0.112889,-0.18062 0,-0.24835 0.92569,-1.6256 l 0.993423,-1.4224 0.677334,-0.0677 q 0.654756,-0.0903 0.745067,-0.24836 0.04516,-0.11289 -0.180622,-0.11289 l -0.316089,0.0226 q -0.564445,0.0903 -0.564445,0 0,-0.13547 0.767645,-1.26436 z m 19.981337,4.67361 q 0.06773,0 0.06773,-0.0677 0,-0.0677 -0.06773,-0.0677 -0.06773,0 -0.06773,0.0677 0,0.0677 0.06773,0.0677 z m -0.112889,-1.82881 1.354668,-2.41582 h 1.12889 q 1.174046,0 1.174046,0.0903 0,0.15805 -2.167469,4.13174 -2.167469,3.95111 -2.393247,4.22205 -0.180622,0.18062 -0.970845,0.18062 -0.587023,0 -0.72249,-0.0903 -0.135466,-0.0677 -0.4064,-0.49671 -0.361245,-0.65476 -0.428978,-1.26436 -0.04516,-0.38382 -0.180623,-1.12889 l -0.06773,-0.45156 h 0.880534 q 1.761069,0 2.032002,-0.45155 0.135467,-0.22578 0.112889,-0.22578 -0.02258,-0.0226 -0.248356,0.18062 -0.316089,0.29351 -0.361244,0.18062 0,-0.24835 1.264356,-2.46098 z m -4.357515,-1.91911 q 0.745067,-1.33209 0.790223,-1.33209 0.06773,0 0.02258,0.45156 0,0.0451 -0.02258,0.11289 0,0.0677 0,0.0903 0,0.15804 0.06773,0.2032 0.06773,0.0451 0.293512,0.0903 0.338667,0.0452 0.428978,0.27093 1.196623,4.13174 1.196623,4.31236 0,0.0677 -0.06773,0.11289 -0.06773,0.0452 -0.270934,0.0677 -0.2032,0.0226 -0.564445,0.0226 -0.338667,0.0226 -0.948267,0.0226 -1.85138,0 -1.919113,0.13547 -0.04516,0.0677 0.135466,0.11289 0.158045,0.0226 0.406401,0.0226 0.6096,0 0.6096,0.0903 0,0.11288 -0.857956,1.46755 l -0.857956,1.37725 -0.745068,0.15804 q -1.083734,0.24836 -1.512712,0.24836 -0.361245,0 -0.361245,-0.2032 0,-0.38382 0.383822,-1.03858 0.293512,-0.54187 0.451556,-0.72249 0.180623,-0.18062 0.496712,-0.27093 h 0.02258 l 0.04515,-0.0226 0.270934,-0.0903 q -0.02258,0 -0.225778,-0.0226 h -0.383823 l 0.225778,-0.49671 q 0.158045,-0.33867 0.293512,-0.4064 0.135467,-0.0677 0.677334,-0.0677 0.722489,0 0.722489,-0.15804 0,-0.11289 -0.09031,-0.0677 -0.09031,0.0677 -0.632178,-0.0226 l -0.496712,-0.0903 0.835379,-1.51272 q 0.248356,-0.45155 0.812801,-1.49013 0.587022,-1.03858 0.767645,-1.35467 z m 15.804461,2.46098 q -0.58702,-0.0677 -1.512708,-0.11289 h -0.338667 q -0.293511,0 -0.383822,0.13547 -0.06773,0.11289 -0.225778,0.69991 -0.02258,0.0677 -0.06773,0.38382 -0.02258,0.27094 -0.361245,0.27094 -0.338667,0 -0.338667,0.13546 0,0.13547 0.270934,0.13547 0.270934,0 0.270934,0.0452 0,0.0677 -0.203201,0.79022 -0.180622,0.67733 -0.180622,0.85796 0,0.11289 0.06773,0.11289 0.112889,0 0.677334,-0.56445 0.970845,-0.99346 1.625598,-0.99346 h 0.0677 q 0.42897,0.0451 0.42897,-0.11289 0,-0.13547 -0.27093,-0.13547 -0.24835,0 -0.24835,-0.0903 0,-0.15804 0.74506,-0.8128 l 0.790227,-0.67733 z m 7.382947,-7.54098 q 0.45155,-0.67734 0.6096,-0.67734 0.0226,0 0.0226,0.0677 0,0.29351 -0.51929,1.24177 -0.49671,0.85796 -0.49671,1.08374 0,0.13547 0.13547,0.36124 l 0.22578,0.38383 -2.57387,3.02542 q -1.53529,1.78365 -3.81565,4.51556 -1.241777,1.49014 -2.370666,2.25778 l -1.12889,0.76765 -1.286934,-0.49671 q -0.158045,-0.0677 -0.428979,-0.15805 -0.248355,-0.0903 -0.383822,-0.15804 -0.112889,-0.0452 -0.270934,-0.11289 -0.158044,-0.0677 -0.225778,-0.13547 -0.04516,-0.0452 -0.04516,-0.0903 0,-0.67733 0.270933,-2.28036 l 0.361245,-2.28036 q 0.564445,-0.72249 1.33209,-1.55786 h 5.689595 l 1.51272,-1.87396 q 1.39982,-1.76107 2.14489,-2.4384 0.54186,-0.47414 1.24178,-1.44498 z m 11.10829,12.62099 q -0.0226,-0.0452 -0.18063,-0.0677 -0.22577,0.0226 -0.15804,0.0677 0.15804,0.0451 0.33867,0 z m -4.96712,-9.32463 q 0,-0.0903 0.13547,-0.0903 0.13546,0 0.13546,0.22578 0,0.15805 0.29352,0.15805 0.0677,0 0.65475,-0.0452 0.22578,-0.0226 0.54187,-0.0226 0.51929,0 0.51929,0.22578 0,0.0452 -0.0903,0.31609 -0.4064,0.97085 -1.55787,4.17689 -1.12889,3.20605 -1.12889,3.38667 0,0.13547 2.032,0.24836 2.41583,0.11289 3.16089,0.2032 0.76765,0.11289 0.83538,0.29351 0.0677,0.18062 0.6096,0.51929 0.38383,0.2032 0.83538,0.24836 0.45156,0.0677 2.032,0.0677 2.41583,0 2.41583,0.11289 0,0.11289 -1.78365,0.2032 -1.76107,0.0903 -3.63502,0.0903 -1.78365,0 -2.16747,-0.2032 -0.33867,-0.2032 -3.45441,-0.36124 -2.95769,-0.11289 -3.20604,-0.18063 -0.0452,-0.0452 -0.0452,-0.11289 0,-0.2032 0.15804,-0.76764 0.18063,-0.54187 0.33867,-1.016 0.18062,-0.45156 0.18062,-0.47414 0,-0.0226 0.0452,-0.0226 0.0452,0 0.11289,0 0.0903,0.0226 0.15804,0.0452 0.0452,0.0226 0.13547,0.0226 0.2032,0 0.47413,-0.6096 0.36125,-0.8128 0.92569,-3.09316 0.51929,-2.07716 0.51929,-2.57387 0,-0.13547 -0.0451,-0.36124 -0.13547,-0.54187 -0.13547,-0.6096 z m 20.86192,6.68302 q 0.15804,0.0903 0.24835,-0.0226 0.0677,-0.0677 -0.0452,-0.0677 -0.0452,0 -0.11289,0 -0.11289,0 -0.15805,0.0226 -0.0226,0.0226 0.0677,0.0677 z m -0.99343,0.18063 q 0.6096,0 0.6096,-0.13547 0,-0.13547 -0.6096,-0.13547 -0.63218,0 -0.63218,0.13547 0,0.13547 0.63218,0.13547 z m -1.24179,-0.15805 q -0.0903,-0.13546 -0.45155,-0.0903 -1.71592,0.11289 -1.87396,0.27093 -0.0452,0.0452 -0.0452,0.0677 0,0.0677 0.6096,0.0677 h 0.58703 q 1.19663,-0.0677 1.19663,-0.27093 0,-0.0226 -0.0226,-0.0226 z m 2.39326,-3.27378 q 0.15804,0 0.15804,-0.13547 0,-0.13546 -0.0677,-0.13546 -0.0677,0 -0.13547,0.15804 -0.0452,0.11289 0.0452,0.11289 z m -3.29637,0 q 0.15805,0 0.15805,-0.13547 0,-0.13546 -0.15805,-0.13546 -0.13547,0 -0.13547,0.13546 0,0.13547 0.13547,0.13547 z m 2.9577,-0.42898 q 0.0677,0 0.0677,-0.0677 0,-0.0677 -0.0677,-0.0677 -0.0677,0 -0.0677,0.0677 0,0.0677 0.0677,0.0677 z m -0.4064,0 q 0.24836,-0.0903 0,-0.0903 -0.0677,0 -0.2032,0 -0.42898,0 -0.83538,0.0903 -0.29351,0.0903 -0.0903,0.11289 h 0.31609 q 0.54187,0 0.8128,-0.11289 z m 5.10259,4.40267 q -0.0677,0 -4.85423,1.03858 -4.76393,1.03858 -4.78651,1.03858 -0.0903,0 -0.90311,-0.72249 -0.8128,-0.72249 -0.8128,-0.8128 0,-0.13547 1.24178,-1.91911 l 1.26436,-1.78365 h 0.56444 q 0.0677,0 0.31609,0 0.27094,-0.0226 0.45156,-0.0226 0.15804,0 0.49671,0.0226 0.36125,0 0.54188,0 h 0.54186 q 0.56445,0 0.56445,-0.0903 0,-0.0452 -0.0677,-0.11289 -0.18063,-0.18062 -0.97085,-0.18062 h -0.56445 -0.40641 q -1.03857,0 -1.03857,-0.0677 0,-0.18063 1.39982,-2.1449 l 1.49014,-2.09973 2.82223,0.0903 q 3.40925,0.0903 4.92196,0.15804 l 2.09974,0.0903 q -0.42898,0.58702 -0.88054,1.33209 h -2.07716 q -1.4224,0 -1.80622,0.0451 -0.36125,0.0452 -0.51929,0.22578 -0.18062,0.18062 -0.47413,0.24836 -0.27094,0.0451 -1.19663,0.0451 h -1.4224 l -0.2032,0.4064 -0.22578,0.4064 h 2.98027 1.03858 q 1.08374,0 1.44498,0.0452 0.36125,0.0452 0.36125,0.2032 0,0.0677 -0.36125,0.67733 -0.27093,0.45156 -0.74507,0.56445 -0.45155,0.0903 -3.68018,0.49671 -2.032,0.24835 -2.32551,0.42898 -0.15805,0.0903 -0.42898,0.6096 -0.33867,0.6096 -0.33867,0.76764 0,0.0452 0.11289,0.0452 0.29351,0 4.06401,-0.6096 2.77707,-0.45156 3.02542,-0.45156 0.15805,0 0.18062,0.0452 0.0452,0.0452 0.0452,0.13546 0,0.18063 -0.4064,1.01601 -0.38382,0.83537 -0.47413,0.83537 z m 15.48835,-2.57387 q 0.13547,0 0.13547,-0.13546 0,-0.13547 -0.0452,-0.13547 -0.0903,0 -0.15804,0.15805 0,0.0903 0.0677,0.11288 z m 0.33867,-4.24462 q -0.33867,-0.11289 -2.32552,-0.11289 h -0.67733 q -1.19662,0 -1.46756,0.13547 -0.27093,0.13546 -0.29351,0.69991 v 0.13546 q 0,0.2032 0.0677,0.27094 0.0677,0.0452 0.29352,0.0903 h 0.0451 q 0.51929,0 2.4384,-0.51929 1.9417,-0.54187 1.9417,-0.67733 0,-0.0226 -0.0226,-0.0226 z m -5.8025,-1.06116 0.27094,-0.6096 0.99342,0.0903 q 6.20889,0.49671 7.92481,0.49671 0.36124,0 0.79022,0.63218 0.4064,0.6096 0.4064,0.67734 l -3.00285,1.03857 q -3.00284,0.99343 -3.00284,1.08374 0,0.0677 2.39324,0.99342 l 2.41583,0.94827 -1.6256,1.6256 -1.01601,-0.29351 q -1.19662,-0.36124 -1.19662,-0.49671 0,-0.0452 0.24836,-0.0452 1.49013,-0.0903 1.49013,-0.22577 0,-0.0452 -0.94827,-0.0452 -1.03857,0 -1.17404,0.13547 -0.18062,0.18062 -0.24836,0 -0.0677,-0.13547 -0.33866,-0.13547 -0.22578,0 -1.28694,-0.4064 -1.03858,-0.4064 -1.91911,-0.83538 -0.76765,-0.4064 -0.92569,-0.4064 -0.0452,0 -0.6096,1.06116 -0.54187,1.03858 -1.10631,2.09973 l -0.54187,1.06116 h -0.0226 q -0.11289,0 -0.58702,-0.58702 -0.47414,-0.56445 -0.47414,-0.76765 0,-0.36124 0.58703,-1.64818 1.6256,-3.40925 2.50613,-5.44125 z"
       id="text1-8"
       aria-label="Wandler" />
    <path
       id="path33-5"
       style="font-size:22.5778px;font-family:Cyberpunk;-inkscape-font-specification:Cyberpunk;stroke-width:0.264583"
       d="m 39.134734,163.10069 -0.81287,1.15187 c -0.511581,0.75234 -0.767395,1.17371 -0.767395,1.264 0,0.0602 0.18801,0.0602 0.564307,0 l 0.31626,-0.0227 c 0.150521,0 0.210457,0.0379 0.18035,0.11317 -0.06021,0.10537 -0.308153,0.18784 -0.744657,0.24804 l -0.677478,0.0677 -0.993738,1.42265 c -0.617127,0.91817 -0.925525,1.46018 -0.925525,1.62574 0,0.12042 -0.0374,0.18035 -0.112654,0.18035 -0.135467,0 -0.436696,0.33862 -0.903304,1.01596 l -0.699699,1.01596 0.65474,0.54209 c 0.105363,0.0903 0.218066,0.18047 0.338481,0.27078 0.135466,0.10536 0.255855,0.19604 0.361218,0.2713 0.105361,0.0903 0.165814,0.14255 0.180867,0.15762 0.06021,0.0451 0.135516,0.0677 0.225826,0.0677 0.120416,0 0.368361,-0.0676 0.744658,-0.20309 l 0.767912,-0.29352 0.902787,-1.6707 c 0.602075,-1.12891 0.903304,-1.716 0.903304,-1.76113 -0.01505,-0.0451 -0.06013,-0.0825 -0.135392,-0.11265 -0.165572,0.0151 -0.278274,0.10521 -0.338481,0.27078 -0.0301,0.16557 -0.368728,0.28596 -1.015959,0.36122 -0.16557,0.0151 -0.376637,0.0227 -0.632519,0.0227 -0.451556,0 -0.677478,-0.0451 -0.677478,-0.1354 0,-0.0301 0.03023,-0.068 0.09043,-0.11317 0.105363,-0.0753 0.443988,-0.11265 1.015958,-0.11265 0.361245,0 0.594853,-0.0154 0.700216,-0.0455 0.120415,-0.0452 0.218263,-0.14249 0.293522,-0.293 0.07526,-0.1505 0.195648,-0.24117 0.361218,-0.2713 0.165571,-0.0451 0.571817,-0.0825 1.219047,-0.11266 0.903112,-0.0451 1.85905,-0.12815 2.867526,-0.24856 0.64723,-0.0753 1.113929,-0.11266 1.399914,-0.11266 0.120415,0 0.180351,0.0148 0.180351,0.045 0,0.10536 -0.09785,0.60229 -0.293522,1.49035 -0.180623,0.87301 -0.270785,1.34687 -0.270785,1.42213 0,0.0602 0.218237,0.0602 0.654741,0 l 0.632002,-0.0899 0.700216,-2.16783 c 0.481659,-1.46003 0.827454,-2.27253 1.03818,-2.43809 0.195675,-0.16558 0.323749,-0.5042 0.383955,-1.01596 0.04516,-0.39135 0.105609,-0.76021 0.180868,-1.10639 l 0.0677,-0.38396 -1.12913,-0.0904 c -0.677334,-0.0452 -2.001606,-0.0979 -3.973401,-0.15813 z m 5.509225,1.58078 c 0.105363,0 0.15813,0.0148 0.15813,0.045 l -0.135392,0.72244 -0.15813,0.72243 -1.44539,-0.0904 c -1.053631,-0.0602 -1.775961,-0.0899 -2.16731,-0.0899 h -0.745174 l 0.225826,-0.40669 0.203089,-0.40618 h 1.445389 c 0.948268,0 1.460048,-0.0676 1.535307,-0.20309 0.0301,-0.0602 0.173033,-0.12066 0.428915,-0.18086 0.255882,-0.0753 0.474118,-0.11266 0.65474,-0.11266 z" />
  </g>
</svg>
